<svg width="387" height="495" viewBox="0 0 387 495" fill="none" xmlns="http://www.w3.org/2000/svg">
<path d="M90.5 87.2794C90.5 87.2794 90.5 97.2464 90.5 105.718C90.5 137.115 20 127.148 20 177.481C20 200.904 20 444.1 20 444.1C20 444.1 20 474.5 50.5 474.5H235.5C266 474.5 266 444.1 266 444.1C266 444.1 266 200.904 266 177.481C266 127.148 195.5 137.115 195.5 105.718C195.5 97.2464 195.5 87.2794 195.5 87.2794M90.5 87.2794H195.5M90.5 87.2794C90.5 87.2794 69.5 87.2794 69.5 73.8238C69.5 60.3683 69.5 45.916 69.5 32.9588C69.5 21.4967 81.5 20.5 81.5 20.5H204.5C204.5 20.5 216.5 21.4967 216.5 32.9588C216.5 45.916 216.5 60.3683 216.5 73.8238C216.5 87.2794 195.5 87.2794 195.5 87.2794" stroke="white" stroke-width="40"/>
<path d="M20 444.1L20 177.481C20 127.148 90.5 137.115 90.5 105.718V87.2794C90.5 87.2794 69.5 87.2794 69.5 73.8238V32.9588C69.5 21.4967 81.5 20.5 81.5 20.5H204.5C204.5 20.5 216.5 21.4967 216.5 32.9588V73.8238C216.5 87.2794 195.5 87.2794 195.5 87.2794V105.718C195.5 137.115 266 127.148 266 177.481V444.1C266 444.1 266 474.5 235.5 474.5H50.5C20 474.5 20 444.1 20 444.1Z" fill="white"/>
<path d="M90.5 87.2794C90.5 87.2794 90.5 97.2464 90.5 105.718C90.5 137.115 20 127.148 20 177.481C20 200.904 20 444.1 20 444.1C20 444.1 20 474.5 50.5 474.5H235.5C266 474.5 266 444.1 266 444.1C266 444.1 266 200.904 266 177.481C266 127.148 195.5 137.115 195.5 105.718C195.5 97.2464 195.5 87.2794 195.5 87.2794M90.5 87.2794H195.5M90.5 87.2794C90.5 87.2794 69.5 87.2794 69.5 73.8238C69.5 60.3683 69.5 45.916 69.5 32.9588C69.5 21.4967 81.5 20.5 81.5 20.5H204.5C204.5 20.5 216.5 21.4967 216.5 32.9588C216.5 45.916 216.5 60.3683 216.5 73.8238C216.5 87.2794 195.5 87.2794 195.5 87.2794" stroke="black" stroke-width="20"/>
<mask id="path-4-inside-1_0_1" fill="white">
<rect x="58" y="188" width="171" height="196" rx="10"/>
</mask>
<rect x="58" y="188" width="171" height="196" rx="10" fill="white" stroke="black" stroke-width="40" mask="url(#path-4-inside-1_0_1)"/>
<circle cx="259.5" cy="333.5" r="93.5" stroke="white" stroke-width="20" stroke-linejoin="round"/>
<path d="M319.138 395.997L366.639 444.655" stroke="white" stroke-width="40" stroke-linecap="round"/>
<path d="M319.138 395.997L366.639 444.655" stroke="black" stroke-width="20" stroke-linecap="round"/>
<circle cx="259.5" cy="333.5" r="83.5" fill="white" stroke="black" stroke-width="20" stroke-linejoin="round"/>
<path d="M233 354.5C233 354.5 242.5 369 261 369C279.5 369 288 354.5 288 354.5" stroke="black" stroke-width="12" stroke-linecap="round"/>
<circle cx="234" cy="319" r="10" fill="black"/>
<circle cx="286" cy="319" r="10" fill="black"/>
<path d="M96 241H159M96 275H143M96 309H127" stroke="black" stroke-width="15" stroke-linecap="round"/>
</svg>
