<svg width="427" height="142" viewBox="0 0 427 142" fill="none" xmlns="http://www.w3.org/2000/svg">
<mask id="path-1-outside-1_0_1" maskUnits="userSpaceOnUse" x="0" y="0" width="427" height="142" fill="black">
<rect fill="white" width="427" height="142"/>
<path d="M31.96 100.36C28.52 100.36 25.8 99.36 23.8 97.36C21.8 95.36 20.8 92.64 20.8 89.2V27.16C21.68 27 23.08 26.8 25 26.56C26.92 26.24 28.76 26.08 30.52 26.08C32.36 26.08 33.96 26.24 35.32 26.56C36.76 26.8 37.96 27.28 38.92 28C39.88 28.72 40.6 29.72 41.08 31C41.56 32.28 41.8 33.96 41.8 36.04V83.44H69.28C69.84 84.32 70.36 85.52 70.84 87.04C71.32 88.48 71.56 90 71.56 91.6C71.56 94.8 70.88 97.08 69.52 98.44C68.16 99.72 66.36 100.36 64.12 100.36H31.96ZM105.723 87.04C107.083 87.04 108.563 86.92 110.163 86.68C111.843 86.36 113.083 85.96 113.883 85.48V75.88L105.243 76.6C103.003 76.76 101.163 77.24 99.7234 78.04C98.2834 78.84 97.5634 80.04 97.5634 81.64C97.5634 83.24 98.1634 84.56 99.3634 85.6C100.643 86.56 102.763 87.04 105.723 87.04ZM104.763 39.88C109.083 39.88 113.003 40.32 116.523 41.2C120.123 42.08 123.163 43.44 125.643 45.28C128.203 47.04 130.163 49.32 131.523 52.12C132.883 54.84 133.563 58.08 133.563 61.84V88.72C133.563 90.8 132.963 92.52 131.763 93.88C130.643 95.16 129.283 96.28 127.683 97.24C122.483 100.36 115.163 101.92 105.723 101.92C101.483 101.92 97.6434 101.52 94.2034 100.72C90.8434 99.92 87.9234 98.72 85.4434 97.12C83.0434 95.52 81.1634 93.48 79.8034 91C78.5234 88.52 77.8834 85.64 77.8834 82.36C77.8834 76.84 79.5234 72.6 82.8034 69.64C86.0834 66.68 91.1634 64.84 98.0434 64.12L113.763 62.44V61.6C113.763 59.28 112.723 57.64 110.643 56.68C108.643 55.64 105.723 55.12 101.883 55.12C98.8434 55.12 95.8834 55.44 93.0034 56.08C90.1234 56.72 87.5234 57.52 85.2034 58.48C84.1634 57.76 83.2834 56.68 82.5634 55.24C81.8434 53.72 81.4834 52.16 81.4834 50.56C81.4834 48.48 81.9634 46.84 82.9234 45.64C83.9634 44.36 85.5234 43.28 87.6034 42.4C89.9234 41.52 92.6434 40.88 95.7634 40.48C98.9634 40.08 101.963 39.88 104.763 39.88ZM146.277 21.88C147.077 21.64 148.357 21.4 150.117 21.16C151.877 20.84 153.677 20.68 155.517 20.68C157.277 20.68 158.837 20.8 160.197 21.04C161.637 21.28 162.837 21.76 163.797 22.48C164.757 23.2 165.477 24.2 165.957 25.48C166.437 26.68 166.677 28.28 166.677 30.28V42.04C168.677 41.24 170.557 40.68 172.317 40.36C174.157 40.04 176.157 39.88 178.317 39.88C182.157 39.88 185.797 40.56 189.237 41.92C192.677 43.28 195.717 45.28 198.357 47.92C200.997 50.48 203.077 53.68 204.597 57.52C206.117 61.36 206.877 65.8 206.877 70.84C206.877 76.04 206.077 80.6 204.477 84.52C202.957 88.36 200.797 91.56 197.997 94.12C195.197 96.68 191.757 98.64 187.677 100C183.677 101.28 179.237 101.92 174.357 101.92C169.077 101.92 164.597 101.28 160.917 100C157.237 98.8 154.117 97.28 151.557 95.44C148.037 92.96 146.277 89.76 146.277 85.84V21.88ZM174.357 85.84C178.037 85.84 180.877 84.6 182.877 82.12C184.957 79.56 185.997 75.8 185.997 70.84C185.997 65.8 184.957 62.04 182.877 59.56C180.797 57.08 177.997 55.84 174.477 55.84C172.877 55.84 171.477 56 170.277 56.32C169.157 56.64 167.917 57.12 166.557 57.76V83.92C167.437 84.48 168.477 84.96 169.677 85.36C170.957 85.68 172.517 85.84 174.357 85.84ZM247.658 101.92C242.938 101.92 238.538 101.28 234.458 100C230.458 98.64 226.938 96.64 223.898 94C220.938 91.36 218.578 88.04 216.818 84.04C215.138 80.04 214.298 75.36 214.298 70C214.298 64.72 215.138 60.2 216.818 56.44C218.578 52.6 220.858 49.48 223.658 47.08C226.458 44.6 229.658 42.8 233.258 41.68C236.858 40.48 240.538 39.88 244.298 39.88C248.538 39.88 252.378 40.52 255.818 41.8C259.338 43.08 262.338 44.84 264.818 47.08C267.378 49.32 269.338 52 270.698 55.12C272.138 58.24 272.858 61.64 272.858 65.32C272.858 68.04 272.098 70.12 270.578 71.56C269.058 73 266.938 73.92 264.218 74.32L234.578 78.76C235.458 81.4 237.258 83.4 239.978 84.76C242.698 86.04 245.818 86.68 249.338 86.68C252.618 86.68 255.698 86.28 258.578 85.48C261.538 84.6 263.938 83.6 265.778 82.48C267.058 83.28 268.138 84.4 269.018 85.84C269.898 87.28 270.338 88.8 270.338 90.4C270.338 94 268.658 96.68 265.298 98.44C262.738 99.8 259.858 100.72 256.658 101.2C253.458 101.68 250.458 101.92 247.658 101.92ZM244.298 54.76C242.378 54.76 240.698 55.08 239.258 55.72C237.898 56.36 236.778 57.2 235.898 58.24C235.018 59.2 234.338 60.32 233.858 61.6C233.458 62.8 233.218 64.04 233.138 65.32L253.658 61.96C253.418 60.36 252.538 58.76 251.018 57.16C249.498 55.56 247.258 54.76 244.298 54.76ZM303.438 99.88C302.558 100.04 301.238 100.24 299.478 100.48C297.798 100.8 296.078 100.96 294.318 100.96C292.558 100.96 290.958 100.84 289.518 100.6C288.158 100.36 286.998 99.88 286.038 99.16C285.078 98.44 284.318 97.48 283.758 96.28C283.278 95 283.038 93.36 283.038 91.36V21.76C283.918 21.6 285.198 21.4 286.878 21.16C288.638 20.84 290.398 20.68 292.158 20.68C293.918 20.68 295.478 20.8 296.838 21.04C298.278 21.28 299.478 21.76 300.438 22.48C301.398 23.2 302.118 24.2 302.598 25.48C303.158 26.68 303.438 28.28 303.438 30.28V99.88ZM337.07 99.88C336.19 100.04 334.87 100.24 333.11 100.48C331.43 100.8 329.71 100.96 327.95 100.96C326.19 100.96 324.59 100.84 323.15 100.6C321.79 100.36 320.63 99.88 319.67 99.16C318.71 98.44 317.95 97.48 317.39 96.28C316.91 95 316.67 93.36 316.67 91.36V21.76C317.55 21.6 318.83 21.4 320.51 21.16C322.27 20.84 324.03 20.68 325.79 20.68C327.55 20.68 329.11 20.8 330.47 21.04C331.91 21.28 333.11 21.76 334.07 22.48C335.03 23.2 335.75 24.2 336.23 25.48C336.79 26.68 337.07 28.28 337.07 30.28V99.88ZM359.063 85.12C358.183 83.12 357.223 80.88 356.183 78.4C355.223 75.92 354.183 73.08 353.063 69.88C352.023 66.68 350.903 63.04 349.703 58.96C348.583 54.8 347.383 50.04 346.103 44.68C347.223 43.56 348.703 42.6 350.543 41.8C352.463 40.92 354.543 40.48 356.783 40.48C359.583 40.48 361.903 41.08 363.743 42.28C365.583 43.4 366.943 45.56 367.823 48.76L377.303 81.76H377.783C378.743 79.04 379.663 76.08 380.543 72.88C381.503 69.68 382.423 66.4 383.303 63.04C384.183 59.6 384.983 56.2 385.703 52.84C386.503 49.4 387.183 46.04 387.743 42.76C390.623 41.24 393.783 40.48 397.223 40.48C400.023 40.48 402.343 41.08 404.183 42.28C406.023 43.48 406.943 45.56 406.943 48.52C406.943 50.68 406.663 53.2 406.103 56.08C405.543 58.88 404.783 61.88 403.823 65.08C402.943 68.28 401.863 71.6 400.583 75.04C399.383 78.4 398.103 81.72 396.743 85C395.383 88.28 393.983 91.4 392.543 94.36C391.103 97.24 389.703 99.84 388.343 102.16C386.103 106.08 384.023 109.28 382.103 111.76C380.183 114.24 378.343 116.16 376.583 117.52C374.823 118.96 373.063 119.92 371.303 120.4C369.543 120.96 367.703 121.24 365.783 121.24C362.423 121.24 359.703 120.24 357.623 118.24C355.543 116.24 354.303 113.64 353.903 110.44C356.463 108.44 359.023 106.2 361.583 103.72C364.143 101.32 366.463 98.84 368.543 96.28C367.183 95.88 365.703 94.96 364.103 93.52C362.583 92 360.903 89.2 359.063 85.12Z"/>
</mask>
<path d="M31.96 100.36C28.52 100.36 25.8 99.36 23.8 97.36C21.8 95.36 20.8 92.64 20.8 89.2V27.16C21.68 27 23.08 26.8 25 26.56C26.92 26.24 28.76 26.08 30.52 26.08C32.36 26.08 33.96 26.24 35.32 26.56C36.76 26.8 37.96 27.28 38.92 28C39.88 28.72 40.6 29.72 41.08 31C41.56 32.28 41.8 33.96 41.8 36.04V83.44H69.28C69.84 84.32 70.36 85.52 70.84 87.04C71.32 88.48 71.56 90 71.56 91.6C71.56 94.8 70.88 97.08 69.52 98.44C68.16 99.72 66.36 100.36 64.12 100.36H31.96ZM105.723 87.04C107.083 87.04 108.563 86.92 110.163 86.68C111.843 86.36 113.083 85.96 113.883 85.48V75.88L105.243 76.6C103.003 76.76 101.163 77.24 99.7234 78.04C98.2834 78.84 97.5634 80.04 97.5634 81.64C97.5634 83.24 98.1634 84.56 99.3634 85.6C100.643 86.56 102.763 87.04 105.723 87.04ZM104.763 39.88C109.083 39.88 113.003 40.32 116.523 41.2C120.123 42.08 123.163 43.44 125.643 45.28C128.203 47.04 130.163 49.32 131.523 52.12C132.883 54.84 133.563 58.08 133.563 61.84V88.72C133.563 90.8 132.963 92.52 131.763 93.88C130.643 95.16 129.283 96.28 127.683 97.24C122.483 100.36 115.163 101.92 105.723 101.92C101.483 101.92 97.6434 101.52 94.2034 100.72C90.8434 99.92 87.9234 98.72 85.4434 97.12C83.0434 95.52 81.1634 93.48 79.8034 91C78.5234 88.52 77.8834 85.64 77.8834 82.36C77.8834 76.84 79.5234 72.6 82.8034 69.64C86.0834 66.68 91.1634 64.84 98.0434 64.12L113.763 62.44V61.6C113.763 59.28 112.723 57.64 110.643 56.68C108.643 55.64 105.723 55.12 101.883 55.12C98.8434 55.12 95.8834 55.44 93.0034 56.08C90.1234 56.72 87.5234 57.52 85.2034 58.48C84.1634 57.76 83.2834 56.68 82.5634 55.24C81.8434 53.72 81.4834 52.16 81.4834 50.56C81.4834 48.48 81.9634 46.84 82.9234 45.64C83.9634 44.36 85.5234 43.28 87.6034 42.4C89.9234 41.52 92.6434 40.88 95.7634 40.48C98.9634 40.08 101.963 39.88 104.763 39.88ZM146.277 21.88C147.077 21.64 148.357 21.4 150.117 21.16C151.877 20.84 153.677 20.68 155.517 20.68C157.277 20.68 158.837 20.8 160.197 21.04C161.637 21.28 162.837 21.76 163.797 22.48C164.757 23.2 165.477 24.2 165.957 25.48C166.437 26.68 166.677 28.28 166.677 30.28V42.04C168.677 41.24 170.557 40.68 172.317 40.36C174.157 40.04 176.157 39.88 178.317 39.88C182.157 39.88 185.797 40.56 189.237 41.92C192.677 43.28 195.717 45.28 198.357 47.92C200.997 50.48 203.077 53.68 204.597 57.52C206.117 61.36 206.877 65.8 206.877 70.84C206.877 76.04 206.077 80.6 204.477 84.52C202.957 88.36 200.797 91.56 197.997 94.12C195.197 96.68 191.757 98.64 187.677 100C183.677 101.28 179.237 101.92 174.357 101.92C169.077 101.92 164.597 101.28 160.917 100C157.237 98.8 154.117 97.28 151.557 95.44C148.037 92.96 146.277 89.76 146.277 85.84V21.88ZM174.357 85.84C178.037 85.84 180.877 84.6 182.877 82.12C184.957 79.56 185.997 75.8 185.997 70.84C185.997 65.8 184.957 62.04 182.877 59.56C180.797 57.08 177.997 55.84 174.477 55.84C172.877 55.84 171.477 56 170.277 56.32C169.157 56.64 167.917 57.12 166.557 57.76V83.92C167.437 84.48 168.477 84.96 169.677 85.36C170.957 85.68 172.517 85.84 174.357 85.84ZM247.658 101.92C242.938 101.92 238.538 101.28 234.458 100C230.458 98.64 226.938 96.64 223.898 94C220.938 91.36 218.578 88.04 216.818 84.04C215.138 80.04 214.298 75.36 214.298 70C214.298 64.72 215.138 60.2 216.818 56.44C218.578 52.6 220.858 49.48 223.658 47.08C226.458 44.6 229.658 42.8 233.258 41.68C236.858 40.48 240.538 39.88 244.298 39.88C248.538 39.88 252.378 40.52 255.818 41.8C259.338 43.08 262.338 44.84 264.818 47.08C267.378 49.32 269.338 52 270.698 55.12C272.138 58.24 272.858 61.64 272.858 65.32C272.858 68.04 272.098 70.12 270.578 71.56C269.058 73 266.938 73.92 264.218 74.32L234.578 78.76C235.458 81.4 237.258 83.4 239.978 84.76C242.698 86.04 245.818 86.68 249.338 86.68C252.618 86.68 255.698 86.28 258.578 85.48C261.538 84.6 263.938 83.6 265.778 82.48C267.058 83.28 268.138 84.4 269.018 85.84C269.898 87.28 270.338 88.8 270.338 90.4C270.338 94 268.658 96.68 265.298 98.44C262.738 99.8 259.858 100.72 256.658 101.2C253.458 101.68 250.458 101.92 247.658 101.92ZM244.298 54.76C242.378 54.76 240.698 55.08 239.258 55.72C237.898 56.36 236.778 57.2 235.898 58.24C235.018 59.2 234.338 60.32 233.858 61.6C233.458 62.8 233.218 64.04 233.138 65.32L253.658 61.96C253.418 60.36 252.538 58.76 251.018 57.16C249.498 55.56 247.258 54.76 244.298 54.76ZM303.438 99.88C302.558 100.04 301.238 100.24 299.478 100.48C297.798 100.8 296.078 100.96 294.318 100.96C292.558 100.96 290.958 100.84 289.518 100.6C288.158 100.36 286.998 99.88 286.038 99.16C285.078 98.44 284.318 97.48 283.758 96.28C283.278 95 283.038 93.36 283.038 91.36V21.76C283.918 21.6 285.198 21.4 286.878 21.16C288.638 20.84 290.398 20.68 292.158 20.68C293.918 20.68 295.478 20.8 296.838 21.04C298.278 21.28 299.478 21.76 300.438 22.48C301.398 23.2 302.118 24.2 302.598 25.48C303.158 26.68 303.438 28.28 303.438 30.28V99.88ZM337.07 99.88C336.19 100.04 334.87 100.24 333.11 100.48C331.43 100.8 329.71 100.96 327.95 100.96C326.19 100.96 324.59 100.84 323.15 100.6C321.79 100.36 320.63 99.88 319.67 99.16C318.71 98.44 317.95 97.48 317.39 96.28C316.91 95 316.67 93.36 316.67 91.36V21.76C317.55 21.6 318.83 21.4 320.51 21.16C322.27 20.84 324.03 20.68 325.79 20.68C327.55 20.68 329.11 20.8 330.47 21.04C331.91 21.28 333.11 21.76 334.07 22.48C335.03 23.2 335.75 24.2 336.23 25.48C336.79 26.68 337.07 28.28 337.07 30.28V99.88ZM359.063 85.12C358.183 83.12 357.223 80.88 356.183 78.4C355.223 75.92 354.183 73.08 353.063 69.88C352.023 66.68 350.903 63.04 349.703 58.96C348.583 54.8 347.383 50.04 346.103 44.68C347.223 43.56 348.703 42.6 350.543 41.8C352.463 40.92 354.543 40.48 356.783 40.48C359.583 40.48 361.903 41.08 363.743 42.28C365.583 43.4 366.943 45.56 367.823 48.76L377.303 81.76H377.783C378.743 79.04 379.663 76.08 380.543 72.88C381.503 69.68 382.423 66.4 383.303 63.04C384.183 59.6 384.983 56.2 385.703 52.84C386.503 49.4 387.183 46.04 387.743 42.76C390.623 41.24 393.783 40.48 397.223 40.48C400.023 40.48 402.343 41.08 404.183 42.28C406.023 43.48 406.943 45.56 406.943 48.52C406.943 50.68 406.663 53.2 406.103 56.08C405.543 58.88 404.783 61.88 403.823 65.08C402.943 68.28 401.863 71.6 400.583 75.04C399.383 78.4 398.103 81.72 396.743 85C395.383 88.28 393.983 91.4 392.543 94.36C391.103 97.24 389.703 99.84 388.343 102.16C386.103 106.08 384.023 109.28 382.103 111.76C380.183 114.24 378.343 116.16 376.583 117.52C374.823 118.96 373.063 119.92 371.303 120.4C369.543 120.96 367.703 121.24 365.783 121.24C362.423 121.24 359.703 120.24 357.623 118.24C355.543 116.24 354.303 113.64 353.903 110.44C356.463 108.44 359.023 106.2 361.583 103.72C364.143 101.32 366.463 98.84 368.543 96.28C367.183 95.88 365.703 94.96 364.103 93.52C362.583 92 360.903 89.2 359.063 85.12Z" fill="white"/>
<path d="M23.8 97.36L37.9421 83.2179L37.9421 83.2179L23.8 97.36ZM20.8 27.16L17.2223 7.48259L0.800001 10.4684V27.16H20.8ZM25 26.56L27.4807 46.4055L27.8855 46.3549L28.288 46.2879L25 26.56ZM35.32 26.56L30.7392 46.0283L31.3813 46.1794L32.032 46.2879L35.32 26.56ZM38.92 28L26.92 44L26.92 44L38.92 28ZM41.08 31L59.8066 23.9775L59.8066 23.9775L41.08 31ZM41.8 83.44H21.8V103.44H41.8V83.44ZM69.28 83.44L86.1532 72.7025L80.2589 63.44H69.28V83.44ZM70.84 87.04L51.7684 93.0626L51.8161 93.214L51.8663 93.3646L70.84 87.04ZM69.52 98.44L83.2273 113.004L83.4479 112.796L83.6621 112.582L69.52 98.44ZM31.96 100.36V80.36C32.1649 80.36 33.0207 80.3897 34.2413 80.8384C35.533 81.3133 36.8412 82.117 37.9421 83.2179L23.8 97.36L9.65786 111.502C16.1925 118.037 24.438 120.36 31.96 120.36V100.36ZM23.8 97.36L37.9421 83.2179C39.043 84.3188 39.8467 85.627 40.3216 86.9187C40.7703 88.1393 40.8 88.9951 40.8 89.2H20.8H0.800001C0.800001 96.722 3.12319 104.967 9.65786 111.502L23.8 97.36ZM20.8 89.2H40.8V27.16H20.8H0.800001V89.2H20.8ZM20.8 27.16L24.3777 46.8374C24.675 46.7833 25.608 46.6396 27.4807 46.4055L25 26.56L22.5193 6.71444C20.552 6.96035 18.685 7.21665 17.2223 7.48259L20.8 27.16ZM25 26.56L28.288 46.2879C29.234 46.1302 29.9702 46.08 30.52 46.08V26.08V6.07999C27.5498 6.07999 24.606 6.34979 21.712 6.83212L25 26.56ZM30.52 26.08V46.08C30.868 46.08 31.0574 46.0955 31.1099 46.1007C31.1335 46.1031 31.1133 46.1018 31.0536 46.0921C30.994 46.0824 30.8873 46.0632 30.7392 46.0283L35.32 26.56L39.9008 7.09165C36.653 6.32746 33.447 6.07999 30.52 6.07999V26.08ZM35.32 26.56L32.032 46.2879C30.9876 46.1138 29.0209 45.5756 26.92 44L38.92 28L50.92 12C46.8991 8.98435 42.5324 7.48619 38.608 6.83212L35.32 26.56ZM38.92 28L26.92 44C24.4186 42.1239 23.0218 39.8049 22.3534 38.0225L41.08 31L59.8066 23.9775C58.1782 19.6351 55.3414 15.3161 50.92 12L38.92 28ZM41.08 31L22.3534 38.0224C21.9808 37.0287 21.8588 36.313 21.821 36.0484C21.7813 35.7705 21.8 35.744 21.8 36.04H41.8H61.8C61.8 32.6825 61.4484 28.3558 59.8066 23.9775L41.08 31ZM41.8 36.04H21.8V83.44H41.8H61.8V36.04H41.8ZM41.8 83.44V103.44H69.28V83.44V63.44H41.8V83.44ZM69.28 83.44L52.4068 94.1775C52.0009 93.5397 51.7974 93.0872 51.7389 92.9522C51.6744 92.8033 51.6923 92.8219 51.7684 93.0626L70.84 87.04L89.9117 81.0174C89.1523 78.6126 88.0024 75.6083 86.1532 72.7025L69.28 83.44ZM70.84 87.04L51.8663 93.3646C51.6305 92.6572 51.56 92.0327 51.56 91.6H71.56H91.56C91.56 87.9673 91.0095 84.3028 89.8137 80.7154L70.84 87.04ZM71.56 91.6H51.56C51.56 91.8853 51.5178 91.2224 51.8843 89.9939C52.2715 88.6955 53.2162 86.4595 55.3779 84.2979L69.52 98.44L83.6621 112.582C90.608 105.636 91.56 96.7726 91.56 91.6H71.56ZM69.52 98.44L55.8127 83.876C57.1941 82.5759 58.8045 81.6207 60.4498 81.0357C62.0362 80.4716 63.3424 80.36 64.12 80.36V100.36V120.36C70.3773 120.36 77.4408 118.45 83.2273 113.004L69.52 98.44ZM64.12 100.36V80.36H31.96V100.36V120.36H64.12V100.36ZM110.163 86.68L113.13 106.459L113.519 106.4L113.906 106.327L110.163 86.68ZM113.883 85.48L124.173 102.63L133.883 96.8038V85.48H113.883ZM113.883 75.88H133.883V54.144L112.223 55.9491L113.883 75.88ZM105.243 76.6L106.668 96.5492L106.786 96.5407L106.904 96.5309L105.243 76.6ZM99.7234 78.04L90.0106 60.5568L90.0106 60.5569L99.7234 78.04ZM99.3634 85.6L86.2648 100.714L86.7985 101.176L87.3634 101.6L99.3634 85.6ZM116.523 41.2L111.673 60.6028L111.724 60.6155L111.774 60.628L116.523 41.2ZM125.643 45.28L113.727 61.342L114.016 61.5567L114.313 61.7608L125.643 45.28ZM131.523 52.12L113.533 60.8581L113.583 60.9615L113.635 61.0643L131.523 52.12ZM131.763 93.88L116.767 80.6476L116.739 80.6787L116.712 80.7099L131.763 93.88ZM127.683 97.24L117.394 80.0901L117.394 80.0901L127.683 97.24ZM94.2034 100.72L89.571 120.176L89.6221 120.188L89.6732 120.2L94.2034 100.72ZM85.4434 97.12L74.3494 113.761L74.4745 113.844L74.6009 113.926L85.4434 97.12ZM79.8034 91L62.031 100.173L62.1463 100.396L62.2672 100.617L79.8034 91ZM82.8034 69.64L69.4041 54.7921L69.4041 54.7921L82.8034 69.64ZM98.0434 64.12L100.125 84.0114L100.147 84.0091L100.169 84.0068L98.0434 64.12ZM113.763 62.44L115.889 82.3268L133.763 80.4165V62.44H113.763ZM110.643 56.68L101.416 74.4243L101.834 74.6417L102.262 74.8392L110.643 56.68ZM93.0034 56.08L88.6648 36.5563L88.6648 36.5563L93.0034 56.08ZM85.2034 58.48L73.8192 74.9238L82.78 81.1274L92.8505 76.9603L85.2034 58.48ZM82.5634 55.24L64.4887 63.8017L64.5798 63.994L64.6749 64.1843L82.5634 55.24ZM82.9234 45.64L67.4012 33.0281L67.3534 33.0869L67.3061 33.1461L82.9234 45.64ZM87.6034 42.4L80.5104 23.7L80.1578 23.8338L79.8106 23.9807L87.6034 42.4ZM95.7634 40.48L93.2827 20.6344L93.2514 20.6384L93.2202 20.6424L95.7634 40.48ZM105.723 87.04V107.04C108.242 107.04 110.726 106.819 113.13 106.459L110.163 86.68L107.197 66.9013C106.4 67.0207 105.925 67.04 105.723 67.04V87.04ZM110.163 86.68L113.906 106.327C116.304 105.87 120.319 104.942 124.173 102.63L113.883 85.48L103.594 68.3301C104.901 67.5456 105.908 67.2045 106.213 67.1058C106.578 66.9882 106.685 66.983 106.421 67.0332L110.163 86.68ZM113.883 85.48H133.883V75.88H113.883H93.8834V85.48H113.883ZM113.883 75.88L112.223 55.9491L103.583 56.6691L105.243 76.6L106.904 96.5309L115.544 95.8109L113.883 75.88ZM105.243 76.6L103.818 56.6508C99.6669 56.9474 94.75 57.9238 90.0106 60.5568L99.7234 78.04L109.436 95.5231C107.577 96.5562 106.34 96.5726 106.668 96.5492L105.243 76.6ZM99.7234 78.04L90.0106 60.5569C86.7705 62.3569 83.4155 65.1469 80.9536 69.2501C78.4738 73.3831 77.5634 77.7447 77.5634 81.64H97.5634H117.563C117.563 83.9353 117.013 86.8969 115.253 89.8299C113.511 92.7331 111.236 94.5231 109.436 95.5231L99.7234 78.04ZM97.5634 81.64H77.5634C77.5634 88.9897 80.6434 95.8419 86.2648 100.714L99.3634 85.6L112.462 70.4862C113.828 71.6699 115.22 73.3527 116.221 75.5539C117.22 77.7512 117.563 79.8828 117.563 81.64H97.5634ZM99.3634 85.6L87.3634 101.6C93.999 106.577 101.63 107.04 105.723 107.04V87.04V67.04C105.235 67.04 105.527 66.9919 106.33 67.1737C107.088 67.3453 109.097 67.8998 111.363 69.6L99.3634 85.6ZM104.763 39.88V59.88C107.749 59.88 110.006 60.1862 111.673 60.6028L116.523 41.2L121.374 21.7972C116.001 20.4538 110.418 19.88 104.763 19.88V39.88ZM116.523 41.2L111.774 60.628C113.292 60.999 113.771 61.3747 113.727 61.342L125.643 45.28L137.56 29.218C132.556 25.5053 126.955 23.161 121.272 21.772L116.523 41.2ZM125.643 45.28L114.313 61.7608C114.219 61.696 114.049 61.5591 113.867 61.3477C113.686 61.1366 113.579 60.952 113.533 60.8581L131.523 52.12L149.514 43.3819C146.644 37.4747 142.392 32.5244 136.974 28.7992L125.643 45.28ZM131.523 52.12L113.635 61.0643C113.317 60.4281 113.563 60.4652 113.563 61.84H133.563H153.563C153.563 55.6948 152.45 49.2519 149.412 43.1757L131.523 52.12ZM133.563 61.84H113.563V88.72H133.563H153.563V61.84H133.563ZM133.563 88.72H113.563C113.563 87.8306 113.694 86.5172 114.229 84.9826C114.779 83.4077 115.645 81.9186 116.767 80.6476L131.763 93.88L146.76 107.112C151.655 101.565 153.563 94.9109 153.563 88.72H133.563ZM131.763 93.88L116.712 80.7099C116.893 80.5027 117.06 80.3481 117.189 80.2414C117.317 80.136 117.394 80.09 117.394 80.0901L127.683 97.24L137.973 114.39C141.186 112.462 144.198 110.041 146.815 107.05L131.763 93.88ZM127.683 97.24L117.394 80.0901C116.575 80.5813 113.386 81.92 105.723 81.92V101.92V121.92C116.941 121.92 128.392 120.139 137.973 114.39L127.683 97.24ZM105.723 101.92V81.92C102.715 81.92 100.427 81.6337 98.7337 81.2398L94.2034 100.72L89.6732 120.2C94.8594 121.406 100.252 121.92 105.723 121.92V101.92ZM94.2034 100.72L98.8358 81.2639C97.3136 80.9014 96.5676 80.4958 96.286 80.3141L85.4434 97.12L74.6009 113.926C79.2793 116.944 84.3733 118.939 89.571 120.176L94.2034 100.72ZM85.4434 97.12L96.5374 80.479C96.6076 80.5258 96.7611 80.6417 96.9406 80.8364C97.1212 81.0324 97.2551 81.2291 97.3397 81.3833L79.8034 91L62.2672 100.617C65.2088 105.981 69.3226 110.41 74.3494 113.761L85.4434 97.12ZM79.8034 91L97.5759 81.8271C97.769 82.2013 97.8551 82.4971 97.8872 82.6414C97.9166 82.774 97.8834 82.7007 97.8834 82.36H77.8834H57.8834C57.8834 88.2731 59.0509 94.3989 62.031 100.173L79.8034 91ZM77.8834 82.36H97.8834C97.8834 81.554 98.005 81.6389 97.7667 82.2549C97.6457 82.5679 97.4525 82.9613 97.1638 83.3838C96.8738 83.8082 96.5423 84.1814 96.2027 84.4879L82.8034 69.64L69.4041 54.7921C60.9145 62.4535 57.8834 72.6959 57.8834 82.36H77.8834ZM82.8034 69.64L96.2027 84.4879C95.547 85.0796 95.2491 85.0746 95.8845 84.8445C96.5418 84.6064 97.8738 84.247 100.125 84.0114L98.0434 64.12L95.9618 44.2286C87.0891 45.1572 77.1552 47.7972 69.4041 54.7921L82.8034 69.64ZM98.0434 64.12L100.169 84.0068L115.889 82.3268L113.763 62.44L111.638 42.5532L95.9181 44.2332L98.0434 64.12ZM113.763 62.44H133.763V61.6H113.763H93.7634V62.44H113.763ZM113.763 61.6H133.763C133.763 57.3937 132.791 52.5193 129.874 47.9192C126.946 43.3028 122.92 40.3187 119.025 38.5208L110.643 56.68L102.262 74.8392C100.447 74.0013 97.9807 72.3172 96.0933 69.3408C94.2161 66.3807 93.7634 63.4863 93.7634 61.6H113.763ZM110.643 56.68L119.87 38.9357C113.675 35.7142 106.966 35.12 101.883 35.12V55.12V75.12C102.397 75.12 102.784 75.1376 103.057 75.1586C103.332 75.1797 103.454 75.2015 103.447 75.2002C103.442 75.1993 103.255 75.1663 102.926 75.0621C102.598 74.9582 102.071 74.7648 101.416 74.4243L110.643 56.68ZM101.883 55.12V35.12C97.4286 35.12 93.0121 35.5902 88.6648 36.5563L93.0034 56.08L97.342 75.6037C98.7548 75.2898 100.258 75.12 101.883 75.12V55.12ZM93.0034 56.08L88.6648 36.5563C84.8443 37.4053 81.1132 38.5279 77.5564 39.9997L85.2034 58.48L92.8505 76.9603C93.9337 76.5121 95.4026 76.0347 97.3421 75.6037L93.0034 56.08ZM85.2034 58.48L96.5876 42.0362C98.9655 43.6824 100.07 45.5311 100.452 46.2957L82.5634 55.24L64.6749 64.1843C66.4972 67.8289 69.3614 71.8376 73.8192 74.9238L85.2034 58.48ZM82.5634 55.24L100.638 46.6783C101.119 47.6941 101.483 49.0473 101.483 50.56H81.4834H61.4834C61.4834 55.2727 62.5675 59.7459 64.4887 63.8017L82.5634 55.24ZM81.4834 50.56H101.483C101.483 51.4229 101.277 54.7137 98.5408 58.1339L82.9234 45.64L67.3061 33.1461C62.6499 38.9663 61.4834 45.5371 61.4834 50.56H81.4834ZM82.9234 45.64L98.4457 58.2519C97.611 59.2792 96.8027 59.9365 96.2576 60.3138C95.9844 60.503 95.7658 60.63 95.6229 60.7069C95.4801 60.7838 95.3995 60.818 95.3962 60.8193L87.6034 42.4L79.8106 23.9807C75.7767 25.6873 71.124 28.4461 67.4012 33.0281L82.9234 45.64ZM87.6034 42.4L94.6965 61.0999C95.2206 60.9012 96.3496 60.5685 98.3067 60.3176L95.7634 40.48L93.2202 20.6424C88.9373 21.1915 84.6263 22.1388 80.5104 23.7L87.6034 42.4ZM95.7634 40.48L98.2441 60.3256C100.742 60.0134 102.906 59.88 104.763 59.88V39.88V19.88C101.021 19.88 97.1851 20.1466 93.2827 20.6344L95.7634 40.48ZM146.277 21.88L140.53 2.72348L126.277 6.99941V21.88H146.277ZM150.117 21.16L152.819 40.9766L153.258 40.9167L153.695 40.8374L150.117 21.16ZM160.197 21.04L156.721 40.7357L156.815 40.7522L156.909 40.7679L160.197 21.04ZM163.797 22.48L151.797 38.48L151.797 38.48L163.797 22.48ZM165.957 25.48L147.23 32.5025L147.307 32.706L147.387 32.9078L165.957 25.48ZM166.677 42.04H146.677V71.5807L174.105 60.6095L166.677 42.04ZM172.317 40.36L168.89 20.6558L168.815 20.6689L168.739 20.6826L172.317 40.36ZM189.237 41.92L196.59 23.3208L196.59 23.3208L189.237 41.92ZM198.357 47.92L184.215 62.0621L184.324 62.1709L184.434 62.278L198.357 47.92ZM204.597 57.52L186.001 64.881L186.001 64.881L204.597 57.52ZM204.477 84.52L185.96 76.9621L185.92 77.0603L185.881 77.159L204.477 84.52ZM197.997 94.12L184.501 79.3594L184.501 79.3594L197.997 94.12ZM187.677 100L193.772 119.048L193.887 119.012L194.001 118.974L187.677 100ZM160.917 100L167.487 81.1101L167.303 81.0459L167.117 80.9854L160.917 100ZM151.557 95.44L163.23 79.1997L163.153 79.1447L163.076 79.0904L151.557 95.44ZM182.877 82.12L167.355 69.5082L167.332 69.5365L167.309 69.5649L182.877 82.12ZM182.877 59.56L198.201 46.7078L198.201 46.7078L182.877 59.56ZM170.277 56.32L165.124 36.9953L164.953 37.0409L164.782 37.0895L170.277 56.32ZM166.557 57.76L158.041 39.6636L146.557 45.0679V57.76H166.557ZM166.557 83.92H146.557V94.8989L155.819 100.793L166.557 83.92ZM169.677 85.36L163.352 104.334L164.081 104.577L164.826 104.763L169.677 85.36ZM146.277 21.88L152.024 41.0365C151.716 41.1288 151.515 41.176 151.464 41.1878C151.404 41.2017 151.418 41.1971 151.523 41.1774C151.743 41.1361 152.159 41.0666 152.819 40.9766L150.117 21.16L147.415 1.34339C145.504 1.60389 142.917 2.00728 140.53 2.72348L146.277 21.88ZM150.117 21.16L153.695 40.8374C154.241 40.7381 154.842 40.68 155.517 40.68V20.68V0.679998C152.511 0.679998 149.513 0.941924 146.539 1.4826L150.117 21.16ZM155.517 20.68V40.68C156.412 40.68 156.77 40.7443 156.721 40.7357L160.197 21.04L163.673 1.34432C160.903 0.855647 158.142 0.679998 155.517 0.679998V20.68ZM160.197 21.04L156.909 40.7679C155.864 40.5938 153.898 40.0556 151.797 38.48L163.797 22.48L175.797 6.48C171.776 3.46435 167.409 1.96619 163.485 1.31212L160.197 21.04ZM163.797 22.48L151.797 38.48C149.295 36.6039 147.899 34.2849 147.23 32.5025L165.957 25.48L184.683 18.4575C183.055 14.1151 180.218 9.79607 175.797 6.47999L163.797 22.48ZM165.957 25.48L147.387 32.9078C146.931 31.7664 146.773 30.9109 146.718 30.5468C146.661 30.1674 146.677 30.0513 146.677 30.28H166.677H186.677C186.677 26.9792 186.324 22.5453 184.526 18.0522L165.957 25.48ZM166.677 30.28H146.677V42.04H166.677H186.677V30.28H166.677ZM166.677 42.04L174.105 60.6095C175.104 60.2096 175.686 60.0753 175.895 60.0374L172.317 40.36L168.739 20.6826C165.427 21.2847 162.249 22.2703 159.249 23.4705L166.677 42.04ZM172.317 40.36L175.744 60.0642C176.293 59.9687 177.132 59.88 178.317 59.88V39.88V19.88C175.182 19.88 172.021 20.1113 168.89 20.6558L172.317 40.36ZM178.317 39.88V59.88C179.737 59.88 180.874 60.1199 181.884 60.5192L189.237 41.92L196.59 23.3208C190.72 21 184.577 19.88 178.317 19.88V39.88ZM189.237 41.92L181.884 60.5192C182.755 60.8638 183.491 61.3379 184.215 62.0621L198.357 47.92L212.499 33.7779C207.943 29.2221 202.598 25.6961 196.59 23.3208L189.237 41.92ZM198.357 47.92L184.434 62.278C184.801 62.6335 185.396 63.3529 186.001 64.881L204.597 57.52L223.193 50.159C220.758 44.0071 217.193 38.3265 212.28 33.562L198.357 47.92ZM204.597 57.52L186.001 64.881C186.413 65.9237 186.877 67.7809 186.877 70.84H206.877H226.877C226.877 63.8191 225.82 56.7963 223.193 50.159L204.597 57.52ZM206.877 70.84H186.877C186.877 74.0223 186.385 75.9211 185.96 76.9621L204.477 84.52L222.994 92.0779C225.769 85.2789 226.877 78.0577 226.877 70.84H206.877ZM204.477 84.52L185.881 77.159C185.377 78.4315 184.869 79.0238 184.501 79.3594L197.997 94.12L211.492 108.881C216.725 104.096 220.537 98.2885 223.073 91.881L204.477 84.52ZM197.997 94.12L184.501 79.3594C184.03 79.7909 183.128 80.4344 181.352 81.0263L187.677 100L194.001 118.974C200.386 116.846 206.364 113.569 211.492 108.881L197.997 94.12ZM187.677 100L181.581 80.9515C179.841 81.5084 177.495 81.92 174.357 81.92V101.92V121.92C180.978 121.92 187.513 121.052 193.772 119.048L187.677 100ZM174.357 101.92V81.92C170.573 81.92 168.453 81.446 167.487 81.1101L160.917 100L154.346 118.89C160.741 121.114 167.581 121.92 174.357 121.92V101.92ZM160.917 100L167.117 80.9854C164.965 80.2837 163.789 79.6018 163.23 79.1997L151.557 95.44L139.884 111.68C144.445 114.958 149.508 117.316 154.716 119.015L160.917 100ZM151.557 95.44L163.076 79.0904C163.36 79.2903 164.296 80.0406 165.121 81.5416C165.984 83.1099 166.277 84.6846 166.277 85.84H146.277H126.277C126.277 96.9785 131.812 105.994 140.038 111.79L151.557 95.44ZM146.277 85.84H166.277V21.88H146.277H126.277V85.84H146.277ZM174.357 85.84V105.84C183.032 105.84 192.033 102.626 198.445 94.6751L182.877 82.12L167.309 69.5649C168.27 68.3726 169.63 67.2858 171.244 66.5809C172.776 65.9122 173.951 65.84 174.357 65.84V85.84ZM182.877 82.12L198.399 94.7318C204.519 87.1993 205.997 78.1747 205.997 70.84H185.997H165.997C165.997 71.9808 165.871 72.3003 165.941 72.0483C166.024 71.7476 166.366 70.7246 167.355 69.5082L182.877 82.12ZM185.997 70.84H205.997C205.997 63.5857 204.586 54.3204 198.201 46.7078L182.877 59.56L167.553 72.4122C166.414 71.0541 166.03 69.8959 165.941 69.5717C165.864 69.2954 165.997 69.6269 165.997 70.84H185.997ZM182.877 59.56L198.201 46.7078C191.959 39.2654 183.323 35.84 174.477 35.84V55.84V75.84C173.862 75.84 172.623 75.7232 171.118 75.057C169.568 74.3704 168.36 73.3749 167.553 72.4122L182.877 59.56ZM174.477 55.84V35.84C171.609 35.84 168.407 36.1198 165.124 36.9953L170.277 56.32L175.43 75.6447C174.968 75.7679 174.644 75.814 174.498 75.8306C174.351 75.8474 174.336 75.84 174.477 75.84V55.84ZM170.277 56.32L164.782 37.0895C162.379 37.7762 160.112 38.6891 158.041 39.6636L166.557 57.76L175.073 75.8564C175.381 75.7113 175.597 75.6215 175.727 75.5714C175.858 75.5205 175.87 75.5224 175.771 75.5505L170.277 56.32ZM166.557 57.76H146.557V83.92H166.557H186.557V57.76H166.557ZM166.557 83.92L155.819 100.793C158.334 102.394 160.917 103.522 163.352 104.334L169.677 85.36L176.001 66.3863C176.037 66.3981 176.539 66.5664 177.294 67.0468L166.557 83.92ZM169.677 85.36L164.826 104.763C168.178 105.601 171.471 105.84 174.357 105.84V85.84V65.84C174.185 65.84 174.057 65.8362 173.97 65.8321C173.881 65.828 173.842 65.8238 173.847 65.8244C173.852 65.8249 173.913 65.8312 174.022 65.8497C174.132 65.8681 174.303 65.901 174.528 65.9571L169.677 85.36ZM234.458 100L228.02 118.935L228.245 119.012L228.471 119.083L234.458 100ZM223.898 94L210.586 108.926L210.685 109.014L210.784 109.101L223.898 94ZM216.818 84.04L198.378 91.7846L198.444 91.9403L198.512 92.0948L216.818 84.04ZM216.818 56.44L198.637 48.1069L198.597 48.1939L198.558 48.2812L216.818 56.44ZM223.658 47.08L236.674 62.2651L236.797 62.1594L236.919 62.0518L223.658 47.08ZM233.258 41.68L239.199 60.7771L239.392 60.7173L239.583 60.6537L233.258 41.68ZM255.818 41.8L248.843 60.5444L248.913 60.5704L248.983 60.5959L255.818 41.8ZM264.818 47.08L251.412 61.922L251.529 62.0277L251.648 62.1315L264.818 47.08ZM270.698 55.12L252.364 63.1117L252.45 63.3074L252.539 63.5012L270.698 55.12ZM270.578 71.56L256.823 57.0409L256.823 57.041L270.578 71.56ZM264.218 74.32L261.308 54.5328L261.282 54.5367L261.255 54.5407L264.218 74.32ZM234.578 78.76L231.615 58.9807L208.078 62.5064L215.604 85.0846L234.578 78.76ZM239.978 84.76L231.034 102.649L231.247 102.755L231.462 102.856L239.978 84.76ZM258.578 85.48L263.931 104.75L264.105 104.702L264.278 104.651L258.578 85.48ZM265.778 82.48L276.378 65.52L265.917 58.9818L255.379 65.396L265.778 82.48ZM269.018 85.84L286.084 75.411L286.084 75.411L269.018 85.84ZM265.298 98.44L256.018 80.7234L255.966 80.7504L255.915 80.7777L265.298 98.44ZM256.658 101.2L253.691 81.4213L253.691 81.4213L256.658 101.2ZM239.258 55.72L231.135 37.4438L230.938 37.5316L230.742 37.6236L239.258 55.72ZM235.898 58.24L250.641 71.7545L250.909 71.4619L251.166 71.1588L235.898 58.24ZM233.858 61.6L215.132 54.5775L215.002 54.9242L214.884 55.2755L233.858 61.6ZM233.138 65.32L213.177 64.0724L211.612 89.1111L236.37 85.0572L233.138 65.32ZM253.658 61.96L256.89 81.6972L276.364 78.5084L273.437 58.9932L253.658 61.96ZM251.018 57.16L265.518 43.385L265.518 43.385L251.018 57.16ZM247.658 101.92V81.92C244.76 81.92 242.398 81.5297 240.445 80.9171L234.458 100L228.471 119.083C234.679 121.03 241.116 121.92 247.658 121.92V101.92ZM234.458 100L240.896 81.0645C239.226 80.4966 238 79.7577 237.012 78.8993L223.898 94L210.784 109.101C215.876 113.522 221.69 116.783 228.02 118.935L234.458 100ZM223.898 94L237.21 79.0741C236.597 78.527 235.849 77.633 235.124 75.9852L216.818 84.04L198.512 92.0948C201.307 98.447 205.279 104.193 210.586 108.926L223.898 94ZM216.818 84.04L235.258 76.2954C234.819 75.2516 234.298 73.3079 234.298 70H214.298H194.298C194.298 77.4121 195.457 84.8284 198.378 91.7846L216.818 84.04ZM214.298 70H234.298C234.298 66.7688 234.82 65.1763 235.078 64.5988L216.818 56.44L198.558 48.2812C195.456 55.2237 194.298 62.6712 194.298 70H214.298ZM216.818 56.44L234.999 64.7731C235.729 63.1819 236.369 62.5262 236.674 62.2651L223.658 47.08L210.642 31.8949C205.347 36.4338 201.428 42.0181 198.637 48.1069L216.818 56.44ZM223.658 47.08L236.919 62.0518C237.581 61.465 238.282 61.0627 239.199 60.7771L233.258 41.68L227.317 22.5829C221.035 24.5373 215.335 27.735 210.397 32.1082L223.658 47.08ZM233.258 41.68L239.583 60.6537C241.163 60.127 242.708 59.88 244.298 59.88V39.88V19.88C238.368 19.88 232.554 20.8329 226.934 22.7063L233.258 41.68ZM244.298 39.88V59.88C246.521 59.88 247.952 60.2129 248.843 60.5444L255.818 41.8L262.793 23.0556C256.804 20.8271 250.555 19.88 244.298 19.88V39.88ZM255.818 41.8L248.983 60.5959C250.371 61.1004 251.065 61.6083 251.412 61.922L264.818 47.08L278.224 32.2379C273.611 28.0717 268.306 25.0596 262.653 23.0041L255.818 41.8ZM264.818 47.08L251.648 62.1315C251.986 62.427 252.183 62.6956 252.364 63.1117L270.698 55.12L289.032 47.1283C286.493 41.3044 282.771 36.213 277.988 32.0285L264.818 47.08ZM270.698 55.12L252.539 63.5012C252.682 63.8103 252.858 64.3251 252.858 65.32H272.858H292.858C292.858 58.9549 291.595 52.6697 288.857 46.7388L270.698 55.12ZM272.858 65.32H252.858C252.858 64.8546 252.919 63.6528 253.503 62.0561C254.122 60.3615 255.208 58.5716 256.823 57.0409L270.578 71.56L284.333 86.0791C290.941 79.8192 292.858 71.8047 292.858 65.32H272.858ZM270.578 71.56L256.823 57.041C259.099 54.8846 261.22 54.5458 261.308 54.5328L264.218 74.32L267.128 94.1072C272.656 93.2942 279.017 91.1154 284.333 86.079L270.578 71.56ZM264.218 74.32L261.255 54.5407L231.615 58.9807L234.578 78.76L237.541 98.5393L267.181 94.0993L264.218 74.32ZM234.578 78.76L215.604 85.0846C218.326 93.2484 224.054 99.1587 231.034 102.649L239.978 84.76L248.922 66.8715C249.511 67.166 250.476 67.774 251.454 68.8607C252.457 69.9753 253.153 71.2378 253.552 72.4354L234.578 78.76ZM239.978 84.76L231.462 102.856C237.264 105.587 243.374 106.68 249.338 106.68V86.68V66.68C248.789 66.68 248.485 66.63 248.377 66.6079C248.278 66.5876 248.337 66.5897 248.494 66.6636L239.978 84.76ZM249.338 86.68V106.68C254.253 106.68 259.148 106.079 263.931 104.75L258.578 85.48L253.225 66.2096C252.249 66.4809 250.983 66.68 249.338 66.68V86.68ZM258.578 85.48L264.278 104.651C268.239 103.473 272.384 101.873 276.177 99.564L265.778 82.48L255.379 65.396C255.481 65.3342 255.355 65.4215 254.906 65.6085C254.464 65.7924 253.804 66.0343 252.879 66.3093L258.578 85.48ZM265.778 82.48L255.178 99.44C253.528 98.4087 252.498 97.1622 251.952 96.269L269.018 85.84L286.084 75.411C283.778 71.6378 280.588 68.1513 276.378 65.52L265.778 82.48ZM269.018 85.84L251.952 96.269C251.023 94.7484 250.338 92.685 250.338 90.4H270.338H290.338C290.338 84.915 288.773 79.8116 286.084 75.411L269.018 85.84ZM270.338 90.4H250.338C250.338 88.9745 250.712 86.7535 252.132 84.4873C253.517 82.2781 255.186 81.1592 256.018 80.7234L265.298 98.44L274.578 116.157C278.77 113.961 282.959 110.622 286.024 105.733C289.125 100.786 290.338 95.4255 290.338 90.4H270.338ZM265.298 98.44L255.915 80.7777C255.577 80.9573 254.907 81.239 253.691 81.4213L256.658 101.2L259.625 120.979C264.809 120.201 269.899 118.643 274.681 116.102L265.298 98.44ZM256.658 101.2L253.691 81.4213C251.326 81.7761 249.326 81.92 247.658 81.92V101.92V121.92C251.59 121.92 255.59 121.584 259.625 120.979L256.658 101.2ZM244.298 54.76V34.76C240.177 34.76 235.627 35.4474 231.135 37.4438L239.258 55.72L247.381 73.9962C245.769 74.7126 244.579 74.76 244.298 74.76V54.76ZM239.258 55.72L230.742 37.6236C227.057 39.358 223.547 41.8738 220.63 45.3212L235.898 58.24L251.166 71.1588C250.009 72.5262 248.74 73.362 247.774 73.8164L239.258 55.72ZM235.898 58.24L221.155 44.7255C218.458 47.6674 216.466 51.0194 215.132 54.5775L233.858 61.6L252.585 68.6225C252.21 69.6206 251.578 70.7326 250.641 71.7545L235.898 58.24ZM233.858 61.6L214.884 55.2755C213.929 58.1408 213.364 61.0887 213.177 64.0724L233.138 65.32L253.099 66.5676C253.073 66.9913 252.987 67.4592 252.832 67.9245L233.858 61.6ZM233.138 65.32L236.37 85.0572L256.89 81.6972L253.658 61.96L250.426 42.2228L229.906 45.5828L233.138 65.32ZM253.658 61.96L273.437 58.9932C272.402 52.0963 268.859 46.902 265.518 43.385L251.018 57.16L236.518 70.935C236.217 70.618 234.434 68.6237 233.879 64.9268L253.658 61.96ZM251.018 57.16L265.518 43.385C259.065 36.5921 250.796 34.76 244.298 34.76V54.76V74.76C244.024 74.76 242.965 74.7282 241.471 74.1948C239.874 73.6245 238.082 72.5815 236.518 70.935L251.018 57.16ZM303.438 99.88L307.015 119.557L323.438 116.572V99.88H303.438ZM299.478 100.48L296.775 80.6634L296.253 80.7346L295.735 80.8332L299.478 100.48ZM289.518 100.6L286.042 120.296L286.136 120.312L286.23 120.328L289.518 100.6ZM286.038 99.16L274.038 115.16L286.038 99.16ZM283.758 96.28L265.031 103.302L265.304 104.032L265.634 104.738L283.758 96.28ZM283.038 21.76L279.46 2.08261L263.038 5.06852V21.76H283.038ZM286.878 21.16L289.706 40.959L290.082 40.9053L290.455 40.8374L286.878 21.16ZM296.838 21.04L293.362 40.7357L293.456 40.7522L293.549 40.7679L296.838 21.04ZM300.438 22.48L288.437 38.48L288.438 38.48L300.438 22.48ZM302.598 25.48L283.871 32.5025L284.144 33.2318L284.474 33.9377L302.598 25.48ZM303.438 99.88L299.86 80.2026C299.431 80.2806 298.468 80.4326 296.775 80.6634L299.478 100.48L302.18 120.297C304.007 120.047 305.684 119.799 307.015 119.557L303.438 99.88ZM299.478 100.48L295.735 80.8332C295.324 80.9115 294.858 80.96 294.318 80.96V100.96V120.96C297.297 120.96 300.271 120.688 303.22 120.127L299.478 100.48ZM294.318 100.96V80.96C293.443 80.96 292.965 80.8987 292.805 80.8721L289.518 100.6L286.23 120.328C288.95 120.781 291.672 120.96 294.318 120.96V100.96ZM289.518 100.6L292.993 80.9043C294.257 81.1274 296.131 81.7302 298.037 83.16L286.038 99.16L274.038 115.16C277.864 118.03 282.058 119.593 286.042 120.296L289.518 100.6ZM286.038 99.16L298.037 83.16C299.972 84.6108 301.198 86.3576 301.881 87.8223L283.758 96.28L265.634 104.738C267.437 108.602 270.183 112.269 274.038 115.16L286.038 99.16ZM283.758 96.28L302.484 89.2575C302.836 90.1972 302.962 90.8907 303.007 91.194C303.052 91.5048 303.038 91.5816 303.038 91.36H283.038H263.038C263.038 94.7482 263.415 98.9936 265.031 103.302L283.758 96.28ZM283.038 91.36H303.038V21.76H283.038H263.038V91.36H283.038ZM283.038 21.76L286.615 41.4374C287.116 41.3464 288.097 41.1888 289.706 40.959L286.878 21.16L284.049 1.361C282.298 1.61118 280.719 1.85363 279.46 2.08261L283.038 21.76ZM286.878 21.16L290.455 40.8374C291.054 40.7285 291.617 40.68 292.158 40.68V20.68V0.679998C289.178 0.679998 286.221 0.951494 283.3 1.4826L286.878 21.16ZM292.158 20.68V40.68C293.052 40.68 293.411 40.7443 293.362 40.7357L296.838 21.04L300.313 1.34432C297.544 0.855647 294.783 0.679998 292.158 0.679998V20.68ZM296.838 21.04L293.549 40.7679C292.505 40.5938 290.538 40.0556 288.437 38.48L300.438 22.48L312.438 6.48C308.417 3.46435 304.05 1.96619 300.126 1.31212L296.838 21.04ZM300.438 22.48L288.438 38.48C285.936 36.6039 284.539 34.2849 283.871 32.5025L302.598 25.48L321.324 18.4575C319.696 14.1151 316.859 9.79607 312.437 6.47999L300.438 22.48ZM302.598 25.48L284.474 33.9377C283.865 32.6324 283.624 31.5844 283.527 31.0276C283.428 30.4642 283.438 30.1823 283.438 30.28H303.438H323.438C323.438 26.7132 322.985 21.8725 320.721 17.0223L302.598 25.48ZM303.438 30.28H283.438V99.88H303.438H323.438V30.28H303.438ZM337.07 99.88L340.648 119.557L357.07 116.572V99.88H337.07ZM333.11 100.48L330.408 80.6634L329.886 80.7346L329.368 80.8332L333.11 100.48ZM323.15 100.6L319.675 120.296L319.768 120.312L319.862 120.328L323.15 100.6ZM319.67 99.16L307.67 115.16L319.67 99.16ZM317.39 96.28L298.664 103.302L298.937 104.032L299.267 104.738L317.39 96.28ZM316.67 21.76L313.093 2.08261L296.67 5.06852V21.76H316.67ZM320.51 21.16L323.339 40.959L323.715 40.9053L324.088 40.8374L320.51 21.16ZM330.47 21.04L326.995 40.7357L327.088 40.7522L327.182 40.7679L330.47 21.04ZM334.07 22.48L322.07 38.48L322.07 38.48L334.07 22.48ZM336.23 25.48L317.504 32.5025L317.777 33.2318L318.107 33.9377L336.23 25.48ZM337.07 99.88L333.493 80.2026C333.064 80.2806 332.101 80.4326 330.408 80.6634L333.11 100.48L335.813 120.297C337.64 120.047 339.317 119.799 340.648 119.557L337.07 99.88ZM333.11 100.48L329.368 80.8332C328.957 80.9115 328.491 80.96 327.95 80.96V100.96V120.96C330.93 120.96 333.904 120.688 336.853 120.127L333.11 100.48ZM327.95 100.96V80.96C327.076 80.96 326.598 80.8987 326.438 80.8721L323.15 100.6L319.862 120.328C322.583 120.781 325.305 120.96 327.95 120.96V100.96ZM323.15 100.6L326.626 80.9043C327.89 81.1274 329.764 81.7302 331.67 83.16L319.67 99.16L307.67 115.16C311.497 118.03 315.69 119.593 319.675 120.296L323.15 100.6ZM319.67 99.16L331.67 83.16C333.605 84.6108 334.83 86.3576 335.514 87.8223L317.39 96.28L299.267 104.738C301.07 108.602 303.816 112.269 307.67 115.16L319.67 99.16ZM317.39 96.28L336.117 89.2575C336.469 90.1972 336.595 90.8907 336.64 91.194C336.685 91.5048 336.67 91.5816 336.67 91.36H316.67H296.67C296.67 94.7482 297.048 98.9936 298.664 103.302L317.39 96.28ZM316.67 91.36H336.67V21.76H316.67H296.67V91.36H316.67ZM316.67 21.76L320.248 41.4374C320.749 41.3464 321.73 41.1888 323.339 40.959L320.51 21.16L317.682 1.361C315.931 1.61118 314.352 1.85363 313.093 2.08261L316.67 21.76ZM320.51 21.16L324.088 40.8374C324.687 40.7285 325.25 40.68 325.79 40.68V20.68V0.679998C322.811 0.679998 319.854 0.951494 316.933 1.4826L320.51 21.16ZM325.79 20.68V40.68C326.685 40.68 327.044 40.7443 326.995 40.7357L330.47 21.04L333.946 1.34432C331.177 0.855647 328.416 0.679998 325.79 0.679998V20.68ZM330.47 21.04L327.182 40.7679C326.138 40.5938 324.171 40.0556 322.07 38.48L334.07 22.48L346.07 6.48C342.049 3.46435 337.683 1.96619 333.758 1.31212L330.47 21.04ZM334.07 22.48L322.07 38.48C319.569 36.6039 318.172 34.2849 317.504 32.5025L336.23 25.48L354.957 18.4575C353.328 14.1151 350.492 9.79607 346.07 6.47999L334.07 22.48ZM336.23 25.48L318.107 33.9377C317.498 32.6324 317.257 31.5844 317.16 31.0276C317.061 30.4642 317.07 30.1823 317.07 30.28H337.07H357.07C357.07 26.7132 356.617 21.8725 354.354 17.0223L336.23 25.48ZM337.07 30.28H317.07V99.88H337.07H357.07V30.28H337.07ZM359.063 85.12L340.757 93.1748L340.794 93.2586L340.831 93.3422L359.063 85.12ZM356.183 78.4L337.532 85.6199L337.632 85.8786L337.739 86.1345L356.183 78.4ZM353.063 69.88L334.042 76.0617L334.112 76.2752L334.186 76.487L353.063 69.88ZM349.703 58.96L330.391 64.1595L330.451 64.3821L330.516 64.6033L349.703 58.96ZM346.103 44.68L331.961 30.5379L324.052 38.4467L326.65 49.3255L346.103 44.68ZM350.543 41.8L358.518 60.1414L358.698 60.0631L358.876 59.9813L350.543 41.8ZM363.743 42.28L352.818 59.0322L353.078 59.2022L353.344 59.364L363.743 42.28ZM367.823 48.76L348.539 54.0631L348.569 54.1728L348.601 54.2821L367.823 48.76ZM377.303 81.76L358.081 87.2821L362.24 101.76H377.303V81.76ZM377.783 81.76V101.76H391.933L396.643 88.4164L377.783 81.76ZM380.543 72.88L361.387 67.133L361.32 67.3542L361.259 67.5769L380.543 72.88ZM383.303 63.04L402.651 68.1072L402.665 68.052L402.679 67.9967L383.303 63.04ZM385.703 52.84L366.223 48.3097L366.184 48.4792L366.147 48.6494L385.703 52.84ZM387.743 42.76L378.408 25.0723L369.688 29.6746L368.028 39.3941L387.743 42.76ZM404.183 42.28L415.108 25.5278L415.108 25.5278L404.183 42.28ZM406.103 56.08L425.715 60.0023L425.725 59.9499L425.735 59.8974L406.103 56.08ZM403.823 65.08L384.667 59.3331L384.6 59.5542L384.539 59.7769L403.823 65.08ZM400.583 75.04L381.839 68.0653L381.793 68.189L381.748 68.3133L400.583 75.04ZM396.743 85L415.218 92.6603L415.218 92.6603L396.743 85ZM392.543 94.36L410.432 103.304L410.48 103.207L410.528 103.109L392.543 94.36ZM388.343 102.16L371.089 92.0456L371.033 92.1411L370.978 92.2372L388.343 102.16ZM382.103 111.76L397.918 124.003L397.918 124.003L382.103 111.76ZM376.583 117.52L364.354 101.694L364.134 101.865L363.918 102.041L376.583 117.52ZM371.303 120.4L366.041 101.105L365.637 101.215L365.239 101.341L371.303 120.4ZM357.623 118.24L343.761 132.657L343.761 132.657L357.623 118.24ZM353.903 110.44L341.59 94.6795L332.65 101.664L334.058 112.921L353.903 110.44ZM361.583 103.72L347.904 89.1293L347.785 89.2413L347.667 89.3552L361.583 103.72ZM368.543 96.28L384.065 108.892L403.013 85.5712L374.186 77.0927L368.543 96.28ZM364.103 93.52L349.961 107.662L350.333 108.034L350.724 108.386L364.103 93.52ZM359.063 85.12L377.369 77.0652C376.545 75.1924 375.632 73.0616 374.627 70.6655L356.183 78.4L337.739 86.1345C338.814 88.6984 339.821 91.0476 340.757 93.1748L359.063 85.12ZM356.183 78.4L374.834 71.1801C373.971 68.9493 373.007 66.3202 371.94 63.273L353.063 69.88L334.186 76.487C335.359 79.8398 336.475 82.8907 337.532 85.6199L356.183 78.4ZM353.063 69.88L372.084 63.6983C371.115 60.7162 370.051 57.2609 368.89 53.3167L349.703 58.96L330.516 64.6033C331.756 68.8191 332.932 72.6438 334.042 76.0617L353.063 69.88ZM349.703 58.96L369.015 53.7605C367.956 49.8268 366.803 45.2574 365.556 40.0345L346.103 44.68L326.65 49.3255C327.963 54.8226 329.21 59.7732 330.391 64.1595L349.703 58.96ZM346.103 44.68L360.245 58.8221C359.188 59.8799 358.39 60.1969 358.518 60.1414L350.543 41.8L342.569 23.4586C339.016 25.0031 335.259 27.2401 331.961 30.5379L346.103 44.68ZM350.543 41.8L358.876 59.9813C358.485 60.1607 358.078 60.2934 357.682 60.377C357.291 60.4598 356.98 60.48 356.783 60.48V40.48V20.48C351.845 20.48 346.901 21.4684 342.21 23.6187L350.543 41.8ZM356.783 40.48V60.48C356.761 60.48 355.013 60.4638 352.818 59.0322L363.743 42.28L374.668 25.5278C368.793 21.6962 362.405 20.48 356.783 20.48V40.48ZM363.743 42.28L353.344 59.364C351.175 58.0435 349.884 56.4537 349.218 55.3963C348.595 54.4058 348.472 53.8193 348.539 54.0631L367.823 48.76L387.107 43.4569C385.584 37.9166 382.181 30.0891 374.142 25.196L363.743 42.28ZM367.823 48.76L348.601 54.2821L358.081 87.2821L377.303 81.76L396.526 76.2379L387.046 43.2379L367.823 48.76ZM377.303 81.76V101.76H377.783V81.76V61.76H377.303V81.76ZM377.783 81.76L396.643 88.4164C397.782 85.1901 398.84 81.7729 399.827 78.1831L380.543 72.88L361.259 67.5769C360.486 70.3871 359.705 72.8898 358.923 75.1036L377.783 81.76ZM380.543 72.88L399.7 78.627C400.73 75.1928 401.713 71.6859 402.651 68.1072L383.303 63.04L363.956 57.9728C363.133 61.1141 362.276 64.1672 361.387 67.133L380.543 72.88ZM383.303 63.04L402.679 67.9967C403.622 64.3109 404.482 60.6554 405.259 57.0306L385.703 52.84L366.147 48.6494C365.484 51.7446 364.744 54.8891 363.927 58.0833L383.303 63.04ZM385.703 52.84L405.183 57.3703C406.068 53.5679 406.827 49.8192 407.458 46.1259L387.743 42.76L368.028 39.3941C367.539 42.2608 366.939 45.2321 366.223 48.3097L385.703 52.84ZM387.743 42.76L397.078 60.4477C397.069 60.4523 397.049 60.4625 397.019 60.4738C396.989 60.485 396.964 60.492 396.95 60.4955C396.936 60.4989 396.945 60.4956 396.984 60.4912C397.023 60.4867 397.101 60.48 397.223 60.48V40.48V20.48C390.719 20.48 384.328 21.9479 378.408 25.0723L387.743 42.76ZM397.223 40.48V60.48C397.201 60.48 395.453 60.4638 393.258 59.0322L404.183 42.28L415.108 25.5278C409.233 21.6962 402.845 20.48 397.223 20.48V40.48ZM404.183 42.28L393.258 59.0322C390.817 57.4407 389.009 55.1971 387.962 52.8301C387.01 50.6775 386.943 49.023 386.943 48.52H406.943H426.943C426.943 41.4043 424.49 31.6461 415.108 25.5278L404.183 42.28ZM406.943 48.52H386.943C386.943 49.0365 386.867 50.2263 386.471 52.2626L406.103 56.08L425.735 59.8974C426.459 56.1737 426.943 52.3235 426.943 48.52H406.943ZM406.103 56.08L386.492 52.1577C386.073 54.2499 385.476 56.6358 384.667 59.3331L403.823 65.08L422.98 70.8269C424.09 67.1242 425.013 63.5101 425.715 60.0023L406.103 56.08ZM403.823 65.08L384.539 59.7769C383.83 62.3566 382.936 65.1176 381.839 68.0653L400.583 75.04L419.328 82.0147C420.791 78.0824 422.057 74.2034 423.107 70.3831L403.823 65.08ZM400.583 75.04L381.748 68.3133C380.66 71.3606 379.5 74.3693 378.268 77.3397L396.743 85L415.218 92.6603C416.706 89.0707 418.106 85.4394 419.418 81.7667L400.583 75.04ZM396.743 85L378.268 77.3397C377.049 80.2803 375.811 83.0353 374.558 85.6107L392.543 94.36L410.528 103.109C412.155 99.7647 413.717 96.2797 415.218 92.6603L396.743 85ZM392.543 94.36L374.655 85.4157C373.376 87.9733 372.186 90.1742 371.089 92.0456L388.343 102.16L405.597 112.274C407.22 109.506 408.83 106.507 410.432 103.304L392.543 94.36ZM388.343 102.16L370.978 92.2372C369.018 95.6673 367.451 98.0154 366.289 99.5165L382.103 111.76L397.918 124.003C400.595 120.545 403.188 116.493 405.708 112.083L388.343 102.16ZM382.103 111.76L366.289 99.5165C365.685 100.297 365.201 100.849 364.843 101.222C364.482 101.599 364.315 101.725 364.354 101.694L376.583 117.52L388.812 133.346C392.337 130.622 395.347 127.324 397.918 124.003L382.103 111.76ZM376.583 117.52L363.918 102.041C363.811 102.129 364.512 101.522 366.041 101.105L371.303 120.4L376.565 139.695C381.614 138.318 385.835 135.791 389.248 132.999L376.583 117.52ZM371.303 120.4L365.239 101.341C365.365 101.301 365.487 101.274 365.594 101.258C365.701 101.241 365.768 101.24 365.783 101.24V121.24V141.24C369.679 141.24 373.57 140.667 377.367 139.459L371.303 120.4ZM365.783 121.24V101.24C366.089 101.24 366.953 101.288 368.124 101.718C369.349 102.169 370.522 102.897 371.485 103.823L357.623 118.24L343.761 132.657C350.176 138.825 358.167 141.24 365.783 141.24V121.24ZM357.623 118.24L371.485 103.823C372.177 104.488 372.767 105.305 373.185 106.181C373.59 107.03 373.714 107.685 373.749 107.959L353.903 110.44L334.058 112.921C334.955 120.1 337.988 127.106 343.761 132.657L357.623 118.24ZM353.903 110.44L366.216 126.2C369.385 123.724 372.478 121.011 375.499 118.085L361.583 103.72L347.667 89.3552C345.568 91.3888 343.541 93.1556 341.59 94.6795L353.903 110.44ZM361.583 103.72L375.262 118.311C378.439 115.332 381.381 112.195 384.065 108.892L368.543 96.28L353.021 83.6681C351.545 85.4849 349.847 87.3076 347.904 89.1293L361.583 103.72ZM368.543 96.28L374.186 77.0927C375.579 77.5022 376.516 78.0209 376.972 78.3043C377.433 78.5912 377.602 78.7615 377.482 78.6541L364.103 93.52L350.724 108.386C353.5 110.884 357.571 113.9 362.9 115.467L368.543 96.28ZM364.103 93.52L378.245 79.3779C378.71 79.8423 378.956 80.17 379.004 80.2355C379.061 80.3121 379.008 80.2479 378.853 79.9901C378.529 79.4506 378.003 78.468 377.295 76.8978L359.063 85.12L340.831 93.3422C342.826 97.7655 345.718 103.419 349.961 107.662L364.103 93.52Z" fill="black" mask="url(#path-1-outside-1_0_1)"/>
</svg>
