<svg width="525" height="651" viewBox="0 0 525 651" fill="none" xmlns="http://www.w3.org/2000/svg">
<path d="M167.5 87.2794C167.5 87.2794 167.5 97.2464 167.5 105.718C167.5 137.115 97 127.148 97 177.481C97 200.904 97 444.1 97 444.1C97 444.1 97 474.5 127.5 474.5H312.5C343 474.5 343 444.1 343 444.1C343 444.1 343 200.904 343 177.481C343 127.148 272.5 137.115 272.5 105.718C272.5 97.2464 272.5 87.2794 272.5 87.2794M167.5 87.2794H272.5M167.5 87.2794C167.5 87.2794 146.5 87.2794 146.5 73.8238C146.5 60.3683 146.5 45.916 146.5 32.9588C146.5 21.4967 158.5 20.5 158.5 20.5H281.5C281.5 20.5 293.5 21.4967 293.5 32.9588C293.5 45.916 293.5 60.3683 293.5 73.8238C293.5 87.2794 272.5 87.2794 272.5 87.2794" stroke="white" stroke-width="40"/>
<path d="M97 444.1L97 177.481C97 127.148 167.5 137.115 167.5 105.718V87.2794C167.5 87.2794 146.5 87.2794 146.5 73.8238V32.9588C146.5 21.4967 158.5 20.5 158.5 20.5H281.5C281.5 20.5 293.5 21.4967 293.5 32.9588V73.8238C293.5 87.2794 272.5 87.2794 272.5 87.2794V105.718C272.5 137.115 343 127.148 343 177.481V444.1C343 444.1 343 474.5 312.5 474.5H127.5C97 474.5 97 444.1 97 444.1Z" fill="white"/>
<path d="M167.5 87.2794C167.5 87.2794 167.5 97.2464 167.5 105.718C167.5 137.115 97 127.148 97 177.481C97 200.904 97 444.1 97 444.1C97 444.1 97 474.5 127.5 474.5H312.5C343 474.5 343 444.1 343 444.1C343 444.1 343 200.904 343 177.481C343 127.148 272.5 137.115 272.5 105.718C272.5 97.2464 272.5 87.2794 272.5 87.2794M167.5 87.2794H272.5M167.5 87.2794C167.5 87.2794 146.5 87.2794 146.5 73.8238C146.5 60.3683 146.5 45.916 146.5 32.9588C146.5 21.4967 158.5 20.5 158.5 20.5H281.5C281.5 20.5 293.5 21.4967 293.5 32.9588C293.5 45.916 293.5 60.3683 293.5 73.8238C293.5 87.2794 272.5 87.2794 272.5 87.2794" stroke="black" stroke-width="20"/>
<path d="M149 225.367C149 220.746 152.744 217 157.363 217H283.637C288.256 217 292 220.746 292 225.367V372.633C292 377.254 288.256 381 283.637 381H157.363C152.744 381 149 377.254 149 372.633V225.367Z" fill="white"/>
<path d="M180.778 261.347H233.462M180.778 289.796H220.082M180.778 318.245H206.702M157.363 381H283.637C288.256 381 292 377.254 292 372.633V225.367C292 220.746 288.256 217 283.637 217H157.363C152.744 217 149 220.746 149 225.367V372.633C149 377.254 152.744 381 157.363 381Z" stroke="black" stroke-width="15" stroke-linecap="round"/>
<path d="M386 275C386 275 399 283.293 399 301.5C399 319.707 386 328 386 328" stroke="white" stroke-width="40" stroke-linecap="round"/>
<path d="M386 275C386 275 399 283.293 399 301.5C399 319.707 386 328 386 328" stroke="black" stroke-width="20" stroke-linecap="round"/>
<path d="M427 246C427 246 452 262.585 452 299C452 335.415 427 352 427 352" stroke="white" stroke-width="40" stroke-linecap="round"/>
<path d="M427 246C427 246 452 262.585 452 299C452 335.415 427 352 427 352" stroke="black" stroke-width="20" stroke-linecap="round"/>
<path d="M459 201C459 201 505 231.667 505 299C505 366.333 459 397 459 397" stroke="white" stroke-width="40" stroke-linecap="round"/>
<path d="M459 201C459 201 505 231.667 505 299C505 366.333 459 397 459 397" stroke="black" stroke-width="20" stroke-linecap="round"/>
<rect x="20" y="75" width="400" height="400" rx="15" stroke="white" stroke-width="40" stroke-linecap="round" stroke-dasharray="48 324"/>
<rect x="20" y="75" width="400" height="400" rx="15" stroke="black" stroke-width="20" stroke-linecap="round" stroke-dasharray="48 324"/>
<mask id="path-14-outside-1_0_1" maskUnits="userSpaceOnUse" x="17" y="509" width="427" height="142" fill="black">
<rect fill="white" x="17" y="509" width="427" height="142"/>
<path d="M48.96 609.36C45.52 609.36 42.8 608.36 40.8 606.36C38.8 604.36 37.8 601.64 37.8 598.2V536.16C38.68 536 40.08 535.8 42 535.56C43.92 535.24 45.76 535.08 47.52 535.08C49.36 535.08 50.96 535.24 52.32 535.56C53.76 535.8 54.96 536.28 55.92 537C56.88 537.72 57.6 538.72 58.08 540C58.56 541.28 58.8 542.96 58.8 545.04V592.44H86.28C86.84 593.32 87.36 594.52 87.84 596.04C88.32 597.48 88.56 599 88.56 600.6C88.56 603.8 87.88 606.08 86.52 607.44C85.16 608.72 83.36 609.36 81.12 609.36H48.96ZM122.723 596.04C124.083 596.04 125.563 595.92 127.163 595.68C128.843 595.36 130.083 594.96 130.883 594.48V584.88L122.243 585.6C120.003 585.76 118.163 586.24 116.723 587.04C115.283 587.84 114.563 589.04 114.563 590.64C114.563 592.24 115.163 593.56 116.363 594.6C117.643 595.56 119.763 596.04 122.723 596.04ZM121.763 548.88C126.083 548.88 130.003 549.32 133.523 550.2C137.123 551.08 140.163 552.44 142.643 554.28C145.203 556.04 147.163 558.32 148.523 561.12C149.883 563.84 150.563 567.08 150.563 570.84V597.72C150.563 599.8 149.963 601.52 148.763 602.88C147.643 604.16 146.283 605.28 144.683 606.24C139.483 609.36 132.163 610.92 122.723 610.92C118.483 610.92 114.643 610.52 111.203 609.72C107.843 608.92 104.923 607.72 102.443 606.12C100.043 604.52 98.1634 602.48 96.8034 600C95.5234 597.52 94.8834 594.64 94.8834 591.36C94.8834 585.84 96.5234 581.6 99.8034 578.64C103.083 575.68 108.163 573.84 115.043 573.12L130.763 571.44V570.6C130.763 568.28 129.723 566.64 127.643 565.68C125.643 564.64 122.723 564.12 118.883 564.12C115.843 564.12 112.883 564.44 110.003 565.08C107.123 565.72 104.523 566.52 102.203 567.48C101.163 566.76 100.283 565.68 99.5634 564.24C98.8434 562.72 98.4834 561.16 98.4834 559.56C98.4834 557.48 98.9634 555.84 99.9234 554.64C100.963 553.36 102.523 552.28 104.603 551.4C106.923 550.52 109.643 549.88 112.763 549.48C115.963 549.08 118.963 548.88 121.763 548.88ZM163.277 530.88C164.077 530.64 165.357 530.4 167.117 530.16C168.877 529.84 170.677 529.68 172.517 529.68C174.277 529.68 175.837 529.8 177.197 530.04C178.637 530.28 179.837 530.76 180.797 531.48C181.757 532.2 182.477 533.2 182.957 534.48C183.437 535.68 183.677 537.28 183.677 539.28V551.04C185.677 550.24 187.557 549.68 189.317 549.36C191.157 549.04 193.157 548.88 195.317 548.88C199.157 548.88 202.797 549.56 206.237 550.92C209.677 552.28 212.717 554.28 215.357 556.92C217.997 559.48 220.077 562.68 221.597 566.52C223.117 570.36 223.877 574.8 223.877 579.84C223.877 585.04 223.077 589.6 221.477 593.52C219.957 597.36 217.797 600.56 214.997 603.12C212.197 605.68 208.757 607.64 204.677 609C200.677 610.28 196.237 610.92 191.357 610.92C186.077 610.92 181.597 610.28 177.917 609C174.237 607.8 171.117 606.28 168.557 604.44C165.037 601.96 163.277 598.76 163.277 594.84V530.88ZM191.357 594.84C195.037 594.84 197.877 593.6 199.877 591.12C201.957 588.56 202.997 584.8 202.997 579.84C202.997 574.8 201.957 571.04 199.877 568.56C197.797 566.08 194.997 564.84 191.477 564.84C189.877 564.84 188.477 565 187.277 565.32C186.157 565.64 184.917 566.12 183.557 566.76V592.92C184.437 593.48 185.477 593.96 186.677 594.36C187.957 594.68 189.517 594.84 191.357 594.84ZM264.658 610.92C259.938 610.92 255.538 610.28 251.458 609C247.458 607.64 243.938 605.64 240.898 603C237.938 600.36 235.578 597.04 233.818 593.04C232.138 589.04 231.298 584.36 231.298 579C231.298 573.72 232.138 569.2 233.818 565.44C235.578 561.6 237.858 558.48 240.658 556.08C243.458 553.6 246.658 551.8 250.258 550.68C253.858 549.48 257.538 548.88 261.298 548.88C265.538 548.88 269.378 549.52 272.818 550.8C276.338 552.08 279.338 553.84 281.818 556.08C284.378 558.32 286.338 561 287.698 564.12C289.138 567.24 289.858 570.64 289.858 574.32C289.858 577.04 289.098 579.12 287.578 580.56C286.058 582 283.938 582.92 281.218 583.32L251.578 587.76C252.458 590.4 254.258 592.4 256.978 593.76C259.698 595.04 262.818 595.68 266.338 595.68C269.618 595.68 272.698 595.28 275.578 594.48C278.538 593.6 280.938 592.6 282.778 591.48C284.058 592.28 285.138 593.4 286.018 594.84C286.898 596.28 287.338 597.8 287.338 599.4C287.338 603 285.658 605.68 282.298 607.44C279.738 608.8 276.858 609.72 273.658 610.2C270.458 610.68 267.458 610.92 264.658 610.92ZM261.298 563.76C259.378 563.76 257.698 564.08 256.258 564.72C254.898 565.36 253.778 566.2 252.898 567.24C252.018 568.2 251.338 569.32 250.858 570.6C250.458 571.8 250.218 573.04 250.138 574.32L270.658 570.96C270.418 569.36 269.538 567.76 268.018 566.16C266.498 564.56 264.258 563.76 261.298 563.76ZM320.438 608.88C319.558 609.04 318.238 609.24 316.478 609.48C314.798 609.8 313.078 609.96 311.318 609.96C309.558 609.96 307.958 609.84 306.518 609.6C305.158 609.36 303.998 608.88 303.038 608.16C302.078 607.44 301.318 606.48 300.758 605.28C300.278 604 300.038 602.36 300.038 600.36V530.76C300.918 530.6 302.198 530.4 303.878 530.16C305.638 529.84 307.398 529.68 309.158 529.68C310.918 529.68 312.478 529.8 313.838 530.04C315.278 530.28 316.478 530.76 317.438 531.48C318.398 532.2 319.118 533.2 319.598 534.48C320.158 535.68 320.438 537.28 320.438 539.28V608.88ZM354.07 608.88C353.19 609.04 351.87 609.24 350.11 609.48C348.43 609.8 346.71 609.96 344.95 609.96C343.19 609.96 341.59 609.84 340.15 609.6C338.79 609.36 337.63 608.88 336.67 608.16C335.71 607.44 334.95 606.48 334.39 605.28C333.91 604 333.67 602.36 333.67 600.36V530.76C334.55 530.6 335.83 530.4 337.51 530.16C339.27 529.84 341.03 529.68 342.79 529.68C344.55 529.68 346.11 529.8 347.47 530.04C348.91 530.28 350.11 530.76 351.07 531.48C352.03 532.2 352.75 533.2 353.23 534.48C353.79 535.68 354.07 537.28 354.07 539.28V608.88ZM376.063 594.12C375.183 592.12 374.223 589.88 373.183 587.4C372.223 584.92 371.183 582.08 370.063 578.88C369.023 575.68 367.903 572.04 366.703 567.96C365.583 563.8 364.383 559.04 363.103 553.68C364.223 552.56 365.703 551.6 367.543 550.8C369.463 549.92 371.543 549.48 373.783 549.48C376.583 549.48 378.903 550.08 380.743 551.28C382.583 552.4 383.943 554.56 384.823 557.76L394.303 590.76H394.783C395.743 588.04 396.663 585.08 397.543 581.88C398.503 578.68 399.423 575.4 400.303 572.04C401.183 568.6 401.983 565.2 402.703 561.84C403.503 558.4 404.183 555.04 404.743 551.76C407.623 550.24 410.783 549.48 414.223 549.48C417.023 549.48 419.343 550.08 421.183 551.28C423.023 552.48 423.943 554.56 423.943 557.52C423.943 559.68 423.663 562.2 423.103 565.08C422.543 567.88 421.783 570.88 420.823 574.08C419.943 577.28 418.863 580.6 417.583 584.04C416.383 587.4 415.103 590.72 413.743 594C412.383 597.28 410.983 600.4 409.543 603.36C408.103 606.24 406.703 608.84 405.343 611.16C403.103 615.08 401.023 618.28 399.103 620.76C397.183 623.24 395.343 625.16 393.583 626.52C391.823 627.96 390.063 628.92 388.303 629.4C386.543 629.96 384.703 630.24 382.783 630.24C379.423 630.24 376.703 629.24 374.623 627.24C372.543 625.24 371.303 622.64 370.903 619.44C373.463 617.44 376.023 615.2 378.583 612.72C381.143 610.32 383.463 607.84 385.543 605.28C384.183 604.88 382.703 603.96 381.103 602.52C379.583 601 377.903 598.2 376.063 594.12Z"/>
</mask>
<path d="M48.96 609.36C45.52 609.36 42.8 608.36 40.8 606.36C38.8 604.36 37.8 601.64 37.8 598.2V536.16C38.68 536 40.08 535.8 42 535.56C43.92 535.24 45.76 535.08 47.52 535.08C49.36 535.08 50.96 535.24 52.32 535.56C53.76 535.8 54.96 536.28 55.92 537C56.88 537.72 57.6 538.72 58.08 540C58.56 541.28 58.8 542.96 58.8 545.04V592.44H86.28C86.84 593.32 87.36 594.52 87.84 596.04C88.32 597.48 88.56 599 88.56 600.6C88.56 603.8 87.88 606.08 86.52 607.44C85.16 608.72 83.36 609.36 81.12 609.36H48.96ZM122.723 596.04C124.083 596.04 125.563 595.92 127.163 595.68C128.843 595.36 130.083 594.96 130.883 594.48V584.88L122.243 585.6C120.003 585.76 118.163 586.24 116.723 587.04C115.283 587.84 114.563 589.04 114.563 590.64C114.563 592.24 115.163 593.56 116.363 594.6C117.643 595.56 119.763 596.04 122.723 596.04ZM121.763 548.88C126.083 548.88 130.003 549.32 133.523 550.2C137.123 551.08 140.163 552.44 142.643 554.28C145.203 556.04 147.163 558.32 148.523 561.12C149.883 563.84 150.563 567.08 150.563 570.84V597.72C150.563 599.8 149.963 601.52 148.763 602.88C147.643 604.16 146.283 605.28 144.683 606.24C139.483 609.36 132.163 610.92 122.723 610.92C118.483 610.92 114.643 610.52 111.203 609.72C107.843 608.92 104.923 607.72 102.443 606.12C100.043 604.52 98.1634 602.48 96.8034 600C95.5234 597.52 94.8834 594.64 94.8834 591.36C94.8834 585.84 96.5234 581.6 99.8034 578.64C103.083 575.68 108.163 573.84 115.043 573.12L130.763 571.44V570.6C130.763 568.28 129.723 566.64 127.643 565.68C125.643 564.64 122.723 564.12 118.883 564.12C115.843 564.12 112.883 564.44 110.003 565.08C107.123 565.72 104.523 566.52 102.203 567.48C101.163 566.76 100.283 565.68 99.5634 564.24C98.8434 562.72 98.4834 561.16 98.4834 559.56C98.4834 557.48 98.9634 555.84 99.9234 554.64C100.963 553.36 102.523 552.28 104.603 551.4C106.923 550.52 109.643 549.88 112.763 549.48C115.963 549.08 118.963 548.88 121.763 548.88ZM163.277 530.88C164.077 530.64 165.357 530.4 167.117 530.16C168.877 529.84 170.677 529.68 172.517 529.68C174.277 529.68 175.837 529.8 177.197 530.04C178.637 530.28 179.837 530.76 180.797 531.48C181.757 532.2 182.477 533.2 182.957 534.48C183.437 535.68 183.677 537.28 183.677 539.28V551.04C185.677 550.24 187.557 549.68 189.317 549.36C191.157 549.04 193.157 548.88 195.317 548.88C199.157 548.88 202.797 549.56 206.237 550.92C209.677 552.28 212.717 554.28 215.357 556.92C217.997 559.48 220.077 562.68 221.597 566.52C223.117 570.36 223.877 574.8 223.877 579.84C223.877 585.04 223.077 589.6 221.477 593.52C219.957 597.36 217.797 600.56 214.997 603.12C212.197 605.68 208.757 607.64 204.677 609C200.677 610.28 196.237 610.92 191.357 610.92C186.077 610.92 181.597 610.28 177.917 609C174.237 607.8 171.117 606.28 168.557 604.44C165.037 601.96 163.277 598.76 163.277 594.84V530.88ZM191.357 594.84C195.037 594.84 197.877 593.6 199.877 591.12C201.957 588.56 202.997 584.8 202.997 579.84C202.997 574.8 201.957 571.04 199.877 568.56C197.797 566.08 194.997 564.84 191.477 564.84C189.877 564.84 188.477 565 187.277 565.32C186.157 565.64 184.917 566.12 183.557 566.76V592.92C184.437 593.48 185.477 593.96 186.677 594.36C187.957 594.68 189.517 594.84 191.357 594.84ZM264.658 610.92C259.938 610.92 255.538 610.28 251.458 609C247.458 607.64 243.938 605.64 240.898 603C237.938 600.36 235.578 597.04 233.818 593.04C232.138 589.04 231.298 584.36 231.298 579C231.298 573.72 232.138 569.2 233.818 565.44C235.578 561.6 237.858 558.48 240.658 556.08C243.458 553.6 246.658 551.8 250.258 550.68C253.858 549.48 257.538 548.88 261.298 548.88C265.538 548.88 269.378 549.52 272.818 550.8C276.338 552.08 279.338 553.84 281.818 556.08C284.378 558.32 286.338 561 287.698 564.12C289.138 567.24 289.858 570.64 289.858 574.32C289.858 577.04 289.098 579.12 287.578 580.56C286.058 582 283.938 582.92 281.218 583.32L251.578 587.76C252.458 590.4 254.258 592.4 256.978 593.76C259.698 595.04 262.818 595.68 266.338 595.68C269.618 595.68 272.698 595.28 275.578 594.48C278.538 593.6 280.938 592.6 282.778 591.48C284.058 592.28 285.138 593.4 286.018 594.84C286.898 596.28 287.338 597.8 287.338 599.4C287.338 603 285.658 605.68 282.298 607.44C279.738 608.8 276.858 609.72 273.658 610.2C270.458 610.68 267.458 610.92 264.658 610.92ZM261.298 563.76C259.378 563.76 257.698 564.08 256.258 564.72C254.898 565.36 253.778 566.2 252.898 567.24C252.018 568.2 251.338 569.32 250.858 570.6C250.458 571.8 250.218 573.04 250.138 574.32L270.658 570.96C270.418 569.36 269.538 567.76 268.018 566.16C266.498 564.56 264.258 563.76 261.298 563.76ZM320.438 608.88C319.558 609.04 318.238 609.24 316.478 609.48C314.798 609.8 313.078 609.96 311.318 609.96C309.558 609.96 307.958 609.84 306.518 609.6C305.158 609.36 303.998 608.88 303.038 608.16C302.078 607.44 301.318 606.48 300.758 605.28C300.278 604 300.038 602.36 300.038 600.36V530.76C300.918 530.6 302.198 530.4 303.878 530.16C305.638 529.84 307.398 529.68 309.158 529.68C310.918 529.68 312.478 529.8 313.838 530.04C315.278 530.28 316.478 530.76 317.438 531.48C318.398 532.2 319.118 533.2 319.598 534.48C320.158 535.68 320.438 537.28 320.438 539.28V608.88ZM354.07 608.88C353.19 609.04 351.87 609.24 350.11 609.48C348.43 609.8 346.71 609.96 344.95 609.96C343.19 609.96 341.59 609.84 340.15 609.6C338.79 609.36 337.63 608.88 336.67 608.16C335.71 607.44 334.95 606.48 334.39 605.28C333.91 604 333.67 602.36 333.67 600.36V530.76C334.55 530.6 335.83 530.4 337.51 530.16C339.27 529.84 341.03 529.68 342.79 529.68C344.55 529.68 346.11 529.8 347.47 530.04C348.91 530.28 350.11 530.76 351.07 531.48C352.03 532.2 352.75 533.2 353.23 534.48C353.79 535.68 354.07 537.28 354.07 539.28V608.88ZM376.063 594.12C375.183 592.12 374.223 589.88 373.183 587.4C372.223 584.92 371.183 582.08 370.063 578.88C369.023 575.68 367.903 572.04 366.703 567.96C365.583 563.8 364.383 559.04 363.103 553.68C364.223 552.56 365.703 551.6 367.543 550.8C369.463 549.92 371.543 549.48 373.783 549.48C376.583 549.48 378.903 550.08 380.743 551.28C382.583 552.4 383.943 554.56 384.823 557.76L394.303 590.76H394.783C395.743 588.04 396.663 585.08 397.543 581.88C398.503 578.68 399.423 575.4 400.303 572.04C401.183 568.6 401.983 565.2 402.703 561.84C403.503 558.4 404.183 555.04 404.743 551.76C407.623 550.24 410.783 549.48 414.223 549.48C417.023 549.48 419.343 550.08 421.183 551.28C423.023 552.48 423.943 554.56 423.943 557.52C423.943 559.68 423.663 562.2 423.103 565.08C422.543 567.88 421.783 570.88 420.823 574.08C419.943 577.28 418.863 580.6 417.583 584.04C416.383 587.4 415.103 590.72 413.743 594C412.383 597.28 410.983 600.4 409.543 603.36C408.103 606.24 406.703 608.84 405.343 611.16C403.103 615.08 401.023 618.28 399.103 620.76C397.183 623.24 395.343 625.16 393.583 626.52C391.823 627.96 390.063 628.92 388.303 629.4C386.543 629.96 384.703 630.24 382.783 630.24C379.423 630.24 376.703 629.24 374.623 627.24C372.543 625.24 371.303 622.64 370.903 619.44C373.463 617.44 376.023 615.2 378.583 612.72C381.143 610.32 383.463 607.84 385.543 605.28C384.183 604.88 382.703 603.96 381.103 602.52C379.583 601 377.903 598.2 376.063 594.12Z" fill="white"/>
<path d="M40.8 606.36L54.9421 592.218L54.9421 592.218L40.8 606.36ZM37.8 536.16L34.2223 516.483L17.8 519.468V536.16H37.8ZM42 535.56L44.4807 555.406L44.8855 555.355L45.288 555.288L42 535.56ZM52.32 535.56L47.7392 555.028L48.3813 555.179L49.032 555.288L52.32 535.56ZM55.92 537L43.92 553L43.92 553L55.92 537ZM58.08 540L76.8066 532.978L76.8066 532.978L58.08 540ZM58.8 592.44H38.8V612.44H58.8V592.44ZM86.28 592.44L103.153 581.702L97.2589 572.44H86.28V592.44ZM87.84 596.04L68.7684 602.063L68.8161 602.214L68.8663 602.365L87.84 596.04ZM86.52 607.44L100.227 622.004L100.448 621.796L100.662 621.582L86.52 607.44ZM48.96 609.36V589.36C49.1649 589.36 50.0207 589.39 51.2413 589.838C52.533 590.313 53.8412 591.117 54.9421 592.218L40.8 606.36L26.6579 620.502C33.1925 627.037 41.438 629.36 48.96 629.36V609.36ZM40.8 606.36L54.9421 592.218C56.043 593.319 56.8467 594.627 57.3216 595.919C57.7703 597.139 57.8 597.995 57.8 598.2H37.8H17.8C17.8 605.722 20.1232 613.967 26.6579 620.502L40.8 606.36ZM37.8 598.2H57.8V536.16H37.8H17.8V598.2H37.8ZM37.8 536.16L41.3777 555.837C41.675 555.783 42.608 555.64 44.4807 555.406L42 535.56L39.5193 515.714C37.552 515.96 35.685 516.217 34.2223 516.483L37.8 536.16ZM42 535.56L45.288 555.288C46.234 555.13 46.9702 555.08 47.52 555.08V535.08V515.08C44.5498 515.08 41.606 515.35 38.712 515.832L42 535.56ZM47.52 535.08V555.08C47.868 555.08 48.0574 555.095 48.1099 555.101C48.1335 555.103 48.1133 555.102 48.0536 555.092C47.994 555.082 47.8873 555.063 47.7392 555.028L52.32 535.56L56.9008 516.092C53.653 515.327 50.447 515.08 47.52 515.08V535.08ZM52.32 535.56L49.032 555.288C47.9876 555.114 46.0209 554.576 43.92 553L55.92 537L67.92 521C63.8991 517.984 59.5324 516.486 55.608 515.832L52.32 535.56ZM55.92 537L43.92 553C41.4186 551.124 40.0218 548.805 39.3534 547.022L58.08 540L76.8066 532.978C75.1782 528.635 72.3414 524.316 67.92 521L55.92 537ZM58.08 540L39.3534 547.022C38.9808 546.029 38.8588 545.313 38.821 545.048C38.7813 544.771 38.8 544.744 38.8 545.04H58.8H78.8C78.8 541.683 78.4484 537.356 76.8066 532.978L58.08 540ZM58.8 545.04H38.8V592.44H58.8H78.8V545.04H58.8ZM58.8 592.44V612.44H86.28V592.44V572.44H58.8V592.44ZM86.28 592.44L69.4068 603.178C69.0009 602.54 68.7974 602.087 68.7389 601.952C68.6744 601.803 68.6923 601.822 68.7684 602.063L87.84 596.04L106.912 590.017C106.152 587.613 105.002 584.608 103.153 581.702L86.28 592.44ZM87.84 596.04L68.8663 602.365C68.6305 601.657 68.56 601.033 68.56 600.6H88.56H108.56C108.56 596.967 108.009 593.303 106.814 589.715L87.84 596.04ZM88.56 600.6H68.56C68.56 600.885 68.5178 600.222 68.8843 598.994C69.2715 597.695 70.2162 595.46 72.3779 593.298L86.52 607.44L100.662 621.582C107.608 614.636 108.56 605.773 108.56 600.6H88.56ZM86.52 607.44L72.8127 592.876C74.1941 591.576 75.8045 590.621 77.4498 590.036C79.0362 589.472 80.3424 589.36 81.12 589.36V609.36V629.36C87.3773 629.36 94.4408 627.45 100.227 622.004L86.52 607.44ZM81.12 609.36V589.36H48.96V609.36V629.36H81.12V609.36ZM127.163 595.68L130.13 615.459L130.519 615.4L130.906 615.327L127.163 595.68ZM130.883 594.48L141.173 611.63L150.883 605.804V594.48H130.883ZM130.883 584.88H150.883V563.144L129.223 564.949L130.883 584.88ZM122.243 585.6L123.668 605.549L123.786 605.541L123.904 605.531L122.243 585.6ZM116.723 587.04L107.011 569.557L107.011 569.557L116.723 587.04ZM116.363 594.6L103.265 609.714L103.798 610.176L104.363 610.6L116.363 594.6ZM133.523 550.2L128.673 569.603L128.724 569.616L128.774 569.628L133.523 550.2ZM142.643 554.28L130.727 570.342L131.016 570.557L131.313 570.761L142.643 554.28ZM148.523 561.12L130.533 569.858L130.583 569.961L130.635 570.064L148.523 561.12ZM148.763 602.88L133.767 589.648L133.739 589.679L133.712 589.71L148.763 602.88ZM144.683 606.24L134.394 589.09L134.394 589.09L144.683 606.24ZM111.203 609.72L106.571 629.176L106.622 629.188L106.673 629.2L111.203 609.72ZM102.443 606.12L91.3494 622.761L91.4745 622.844L91.6009 622.926L102.443 606.12ZM96.8034 600L79.031 609.173L79.1463 609.396L79.2672 609.617L96.8034 600ZM99.8034 578.64L86.4041 563.792L86.4041 563.792L99.8034 578.64ZM115.043 573.12L117.125 593.011L117.147 593.009L117.169 593.007L115.043 573.12ZM130.763 571.44L132.889 591.327L150.763 589.416V571.44H130.763ZM127.643 565.68L118.416 583.424L118.834 583.642L119.262 583.839L127.643 565.68ZM110.003 565.08L105.665 545.556L105.665 545.556L110.003 565.08ZM102.203 567.48L90.8192 583.924L99.78 590.127L109.85 585.96L102.203 567.48ZM99.5634 564.24L81.4887 572.802L81.5798 572.994L81.6749 573.184L99.5634 564.24ZM99.9234 554.64L84.4012 542.028L84.3534 542.087L84.3061 542.146L99.9234 554.64ZM104.603 551.4L97.5104 532.7L97.1578 532.834L96.8106 532.981L104.603 551.4ZM112.763 549.48L110.283 529.634L110.251 529.638L110.22 529.642L112.763 549.48ZM122.723 596.04V616.04C125.242 616.04 127.726 615.819 130.13 615.459L127.163 595.68L124.197 575.901C123.4 576.021 122.925 576.04 122.723 576.04V596.04ZM127.163 595.68L130.906 615.327C133.304 614.87 137.319 613.942 141.173 611.63L130.883 594.48L120.594 577.33C121.901 576.546 122.908 576.204 123.213 576.106C123.578 575.988 123.685 575.983 123.421 576.033L127.163 595.68ZM130.883 594.48H150.883V584.88H130.883H110.883V594.48H130.883ZM130.883 584.88L129.223 564.949L120.583 565.669L122.243 585.6L123.904 605.531L132.544 604.811L130.883 584.88ZM122.243 585.6L120.818 565.651C116.667 565.947 111.75 566.924 107.011 569.557L116.723 587.04L126.436 604.523C124.577 605.556 123.34 605.573 123.668 605.549L122.243 585.6ZM116.723 587.04L107.011 569.557C103.771 571.357 100.415 574.147 97.9536 578.25C95.4738 582.383 94.5634 586.745 94.5634 590.64H114.563H134.563C134.563 592.935 134.013 595.897 132.253 598.83C130.511 601.733 128.236 603.523 126.436 604.523L116.723 587.04ZM114.563 590.64H94.5634C94.5634 597.99 97.6434 604.842 103.265 609.714L116.363 594.6L129.462 579.486C130.828 580.67 132.22 582.353 133.221 584.554C134.22 586.751 134.563 588.883 134.563 590.64H114.563ZM116.363 594.6L104.363 610.6C110.999 615.577 118.63 616.04 122.723 616.04V596.04V576.04C122.235 576.04 122.527 575.992 123.33 576.174C124.088 576.345 126.097 576.9 128.363 578.6L116.363 594.6ZM121.763 548.88V568.88C124.749 568.88 127.006 569.186 128.673 569.603L133.523 550.2L138.374 530.797C133.001 529.454 127.418 528.88 121.763 528.88V548.88ZM133.523 550.2L128.774 569.628C130.292 569.999 130.771 570.375 130.727 570.342L142.643 554.28L154.56 538.218C149.556 534.505 143.955 532.161 138.272 530.772L133.523 550.2ZM142.643 554.28L131.313 570.761C131.219 570.696 131.049 570.559 130.867 570.348C130.686 570.137 130.579 569.952 130.533 569.858L148.523 561.12L166.514 552.382C163.644 546.475 159.392 541.524 153.974 537.799L142.643 554.28ZM148.523 561.12L130.635 570.064C130.317 569.428 130.563 569.465 130.563 570.84H150.563H170.563C170.563 564.695 169.45 558.252 166.412 552.176L148.523 561.12ZM150.563 570.84H130.563V597.72H150.563H170.563V570.84H150.563ZM150.563 597.72H130.563C130.563 596.831 130.694 595.517 131.229 593.983C131.779 592.408 132.645 590.919 133.767 589.648L148.763 602.88L163.76 616.112C168.655 610.565 170.563 603.911 170.563 597.72H150.563ZM148.763 602.88L133.712 589.71C133.893 589.503 134.06 589.348 134.189 589.241C134.317 589.136 134.394 589.09 134.394 589.09L144.683 606.24L154.973 623.39C158.186 621.462 161.198 619.041 163.815 616.05L148.763 602.88ZM144.683 606.24L134.394 589.09C133.575 589.581 130.386 590.92 122.723 590.92V610.92V630.92C133.941 630.92 145.392 629.139 154.973 623.39L144.683 606.24ZM122.723 610.92V590.92C119.715 590.92 117.427 590.634 115.734 590.24L111.203 609.72L106.673 629.2C111.859 630.406 117.252 630.92 122.723 630.92V610.92ZM111.203 609.72L115.836 590.264C114.314 589.901 113.568 589.496 113.286 589.314L102.443 606.12L91.6009 622.926C96.2793 625.944 101.373 627.939 106.571 629.176L111.203 609.72ZM102.443 606.12L113.537 589.479C113.608 589.526 113.761 589.642 113.941 589.836C114.121 590.032 114.255 590.229 114.34 590.383L96.8034 600L79.2672 609.617C82.2088 614.981 86.3226 619.41 91.3494 622.761L102.443 606.12ZM96.8034 600L114.576 590.827C114.769 591.201 114.855 591.497 114.887 591.641C114.917 591.774 114.883 591.701 114.883 591.36H94.8834H74.8834C74.8834 597.273 76.0509 603.399 79.031 609.173L96.8034 600ZM94.8834 591.36H114.883C114.883 590.554 115.005 590.639 114.767 591.255C114.646 591.568 114.453 591.961 114.164 592.384C113.874 592.808 113.542 593.181 113.203 593.488L99.8034 578.64L86.4041 563.792C77.9145 571.454 74.8834 581.696 74.8834 591.36H94.8834ZM99.8034 578.64L113.203 593.488C112.547 594.08 112.249 594.075 112.885 593.844C113.542 593.606 114.874 593.247 117.125 593.011L115.043 573.12L112.962 553.229C104.089 554.157 94.1552 556.797 86.4041 563.792L99.8034 578.64ZM115.043 573.12L117.169 593.007L132.889 591.327L130.763 571.44L128.638 551.553L112.918 553.233L115.043 573.12ZM130.763 571.44H150.763V570.6H130.763H110.763V571.44H130.763ZM130.763 570.6H150.763C150.763 566.394 149.791 561.519 146.874 556.919C143.946 552.303 139.92 549.319 136.025 547.521L127.643 565.68L119.262 583.839C117.447 583.001 114.981 581.317 113.093 578.341C111.216 575.381 110.763 572.486 110.763 570.6H130.763ZM127.643 565.68L136.87 547.936C130.675 544.714 123.966 544.12 118.883 544.12V564.12V584.12C119.397 584.12 119.784 584.138 120.057 584.159C120.332 584.18 120.454 584.202 120.447 584.2C120.442 584.199 120.255 584.166 119.926 584.062C119.598 583.958 119.071 583.765 118.416 583.424L127.643 565.68ZM118.883 564.12V544.12C114.429 544.12 110.012 544.59 105.665 545.556L110.003 565.08L114.342 584.604C115.755 584.29 117.258 584.12 118.883 584.12V564.12ZM110.003 565.08L105.665 545.556C101.844 546.405 98.1132 547.528 94.5564 549L102.203 567.48L109.85 585.96C110.934 585.512 112.403 585.035 114.342 584.604L110.003 565.08ZM102.203 567.48L113.588 551.036C115.965 552.682 117.07 554.531 117.452 555.296L99.5634 564.24L81.6749 573.184C83.4972 576.829 86.3614 580.838 90.8192 583.924L102.203 567.48ZM99.5634 564.24L117.638 555.678C118.119 556.694 118.483 558.047 118.483 559.56H98.4834H78.4834C78.4834 564.273 79.5675 568.746 81.4887 572.802L99.5634 564.24ZM98.4834 559.56H118.483C118.483 560.423 118.277 563.714 115.541 567.134L99.9234 554.64L84.3061 542.146C79.6499 547.966 78.4834 554.537 78.4834 559.56H98.4834ZM99.9234 554.64L115.446 567.252C114.611 568.279 113.803 568.936 113.258 569.314C112.984 569.503 112.766 569.63 112.623 569.707C112.48 569.784 112.4 569.818 112.396 569.819L104.603 551.4L96.8106 532.981C92.7767 534.687 88.124 537.446 84.4012 542.028L99.9234 554.64ZM104.603 551.4L111.697 570.1C112.221 569.901 113.35 569.569 115.307 569.318L112.763 549.48L110.22 529.642C105.937 530.191 101.626 531.139 97.5104 532.7L104.603 551.4ZM112.763 549.48L115.244 569.326C117.742 569.013 119.906 568.88 121.763 568.88V548.88V528.88C118.021 528.88 114.185 529.147 110.283 529.634L112.763 549.48ZM163.277 530.88L157.53 511.723L143.277 515.999V530.88H163.277ZM167.117 530.16L169.819 549.977L170.258 549.917L170.695 549.837L167.117 530.16ZM177.197 530.04L173.721 549.736L173.815 549.752L173.909 549.768L177.197 530.04ZM180.797 531.48L168.797 547.48L168.797 547.48L180.797 531.48ZM182.957 534.48L164.23 541.502L164.307 541.706L164.387 541.908L182.957 534.48ZM183.677 551.04H163.677V580.581L191.105 569.61L183.677 551.04ZM189.317 549.36L185.89 529.656L185.815 529.669L185.739 529.683L189.317 549.36ZM206.237 550.92L213.59 532.321L213.59 532.321L206.237 550.92ZM215.357 556.92L201.215 571.062L201.324 571.171L201.434 571.278L215.357 556.92ZM221.597 566.52L203.001 573.881L203.001 573.881L221.597 566.52ZM221.477 593.52L202.96 585.962L202.92 586.06L202.881 586.159L221.477 593.52ZM214.997 603.12L201.501 588.359L201.501 588.359L214.997 603.12ZM204.677 609L210.772 628.048L210.887 628.012L211.001 627.974L204.677 609ZM177.917 609L184.487 590.11L184.303 590.046L184.117 589.985L177.917 609ZM168.557 604.44L180.23 588.2L180.153 588.145L180.076 588.09L168.557 604.44ZM199.877 591.12L184.355 578.508L184.332 578.537L184.309 578.565L199.877 591.12ZM199.877 568.56L215.201 555.708L215.201 555.708L199.877 568.56ZM187.277 565.32L182.124 545.995L181.953 546.041L181.782 546.09L187.277 565.32ZM183.557 566.76L175.041 548.664L163.557 554.068V566.76H183.557ZM183.557 592.92H163.557V603.899L172.819 609.793L183.557 592.92ZM186.677 594.36L180.352 613.334L181.081 613.577L181.826 613.763L186.677 594.36ZM163.277 530.88L169.024 550.037C168.716 550.129 168.515 550.176 168.464 550.188C168.404 550.202 168.418 550.197 168.523 550.177C168.743 550.136 169.159 550.067 169.819 549.977L167.117 530.16L164.415 510.343C162.504 510.604 159.917 511.007 157.53 511.723L163.277 530.88ZM167.117 530.16L170.695 549.837C171.241 549.738 171.842 549.68 172.517 549.68V529.68V509.68C169.511 509.68 166.513 509.942 163.539 510.483L167.117 530.16ZM172.517 529.68V549.68C173.412 549.68 173.77 549.744 173.721 549.736L177.197 530.04L180.673 510.344C177.903 509.856 175.142 509.68 172.517 509.68V529.68ZM177.197 530.04L173.909 549.768C172.864 549.594 170.898 549.056 168.797 547.48L180.797 531.48L192.797 515.48C188.776 512.464 184.409 510.966 180.485 510.312L177.197 530.04ZM180.797 531.48L168.797 547.48C166.295 545.604 164.899 543.285 164.23 541.502L182.957 534.48L201.683 527.458C200.055 523.115 197.218 518.796 192.797 515.48L180.797 531.48ZM182.957 534.48L164.387 541.908C163.931 540.766 163.773 539.911 163.718 539.547C163.661 539.167 163.677 539.051 163.677 539.28H183.677H203.677C203.677 535.979 203.324 531.545 201.526 527.052L182.957 534.48ZM183.677 539.28H163.677V551.04H183.677H203.677V539.28H183.677ZM183.677 551.04L191.105 569.61C192.104 569.21 192.686 569.075 192.895 569.037L189.317 549.36L185.739 529.683C182.427 530.285 179.249 531.27 176.249 532.47L183.677 551.04ZM189.317 549.36L192.744 569.064C193.293 568.969 194.132 568.88 195.317 568.88V548.88V528.88C192.182 528.88 189.021 529.111 185.89 529.656L189.317 549.36ZM195.317 548.88V568.88C196.737 568.88 197.874 569.12 198.884 569.519L206.237 550.92L213.59 532.321C207.72 530 201.577 528.88 195.317 528.88V548.88ZM206.237 550.92L198.884 569.519C199.755 569.864 200.491 570.338 201.215 571.062L215.357 556.92L229.499 542.778C224.943 538.222 219.598 534.696 213.59 532.321L206.237 550.92ZM215.357 556.92L201.434 571.278C201.801 571.634 202.396 572.353 203.001 573.881L221.597 566.52L240.193 559.159C237.758 553.007 234.193 547.326 229.28 542.562L215.357 556.92ZM221.597 566.52L203.001 573.881C203.413 574.924 203.877 576.781 203.877 579.84H223.877H243.877C243.877 572.819 242.82 565.796 240.193 559.159L221.597 566.52ZM223.877 579.84H203.877C203.877 583.022 203.385 584.921 202.96 585.962L221.477 593.52L239.994 601.078C242.769 594.279 243.877 587.058 243.877 579.84H223.877ZM221.477 593.52L202.881 586.159C202.377 587.432 201.869 588.024 201.501 588.359L214.997 603.12L228.492 617.881C233.725 613.096 237.537 607.288 240.073 600.881L221.477 593.52ZM214.997 603.12L201.501 588.359C201.03 588.791 200.128 589.434 198.352 590.026L204.677 609L211.001 627.974C217.386 625.846 223.364 622.569 228.492 617.881L214.997 603.12ZM204.677 609L198.581 589.952C196.841 590.508 194.495 590.92 191.357 590.92V610.92V630.92C197.978 630.92 204.513 630.052 210.772 628.048L204.677 609ZM191.357 610.92V590.92C187.573 590.92 185.453 590.446 184.487 590.11L177.917 609L171.346 627.89C177.741 630.114 184.581 630.92 191.357 630.92V610.92ZM177.917 609L184.117 589.985C181.965 589.284 180.789 588.602 180.23 588.2L168.557 604.44L156.884 620.68C161.445 623.958 166.508 626.316 171.716 628.015L177.917 609ZM168.557 604.44L180.076 588.09C180.36 588.29 181.296 589.041 182.121 590.542C182.984 592.11 183.277 593.685 183.277 594.84H163.277H143.277C143.277 605.978 148.812 614.994 157.038 620.79L168.557 604.44ZM163.277 594.84H183.277V530.88H163.277H143.277V594.84H163.277ZM191.357 594.84V614.84C200.032 614.84 209.033 611.626 215.445 603.675L199.877 591.12L184.309 578.565C185.27 577.373 186.63 576.286 188.244 575.581C189.776 574.912 190.951 574.84 191.357 574.84V594.84ZM199.877 591.12L215.399 603.732C221.519 596.199 222.997 587.175 222.997 579.84H202.997H182.997C182.997 580.981 182.871 581.3 182.941 581.048C183.024 580.748 183.366 579.725 184.355 578.508L199.877 591.12ZM202.997 579.84H222.997C222.997 572.586 221.586 563.32 215.201 555.708L199.877 568.56L184.553 581.412C183.414 580.054 183.03 578.896 182.941 578.572C182.864 578.295 182.997 578.627 182.997 579.84H202.997ZM199.877 568.56L215.201 555.708C208.959 548.265 200.323 544.84 191.477 544.84V564.84V584.84C190.862 584.84 189.623 584.723 188.118 584.057C186.568 583.37 185.36 582.375 184.553 581.412L199.877 568.56ZM191.477 564.84V544.84C188.609 544.84 185.407 545.12 182.124 545.995L187.277 565.32L192.43 584.645C191.968 584.768 191.644 584.814 191.498 584.831C191.351 584.847 191.336 584.84 191.477 584.84V564.84ZM187.277 565.32L181.782 546.09C179.379 546.776 177.112 547.689 175.041 548.664L183.557 566.76L192.073 584.856C192.381 584.711 192.597 584.621 192.727 584.571C192.858 584.521 192.87 584.522 192.771 584.55L187.277 565.32ZM183.557 566.76H163.557V592.92H183.557H203.557V566.76H183.557ZM183.557 592.92L172.819 609.793C175.334 611.394 177.917 612.522 180.352 613.334L186.677 594.36L193.001 575.386C193.037 575.398 193.539 575.566 194.294 576.047L183.557 592.92ZM186.677 594.36L181.826 613.763C185.178 614.601 188.471 614.84 191.357 614.84V594.84V574.84C191.185 574.84 191.057 574.836 190.97 574.832C190.881 574.828 190.842 574.824 190.847 574.824C190.852 574.825 190.913 574.831 191.022 574.85C191.132 574.868 191.303 574.901 191.528 574.957L186.677 594.36ZM251.458 609L245.02 627.935L245.245 628.012L245.471 628.083L251.458 609ZM240.898 603L227.586 617.926L227.685 618.014L227.784 618.101L240.898 603ZM233.818 593.04L215.378 600.785L215.444 600.94L215.512 601.095L233.818 593.04ZM233.818 565.44L215.637 557.107L215.597 557.194L215.558 557.281L233.818 565.44ZM240.658 556.08L253.674 571.265L253.797 571.159L253.919 571.052L240.658 556.08ZM250.258 550.68L256.199 569.777L256.392 569.717L256.583 569.654L250.258 550.68ZM272.818 550.8L265.843 569.544L265.913 569.57L265.983 569.596L272.818 550.8ZM281.818 556.08L268.412 570.922L268.529 571.028L268.648 571.132L281.818 556.08ZM287.698 564.12L269.364 572.112L269.45 572.307L269.539 572.501L287.698 564.12ZM287.578 580.56L273.823 566.041L273.823 566.041L287.578 580.56ZM281.218 583.32L278.308 563.533L278.282 563.537L278.255 563.541L281.218 583.32ZM251.578 587.76L248.615 567.981L225.078 571.506L232.604 594.085L251.578 587.76ZM256.978 593.76L248.034 611.649L248.247 611.755L248.462 611.856L256.978 593.76ZM275.578 594.48L280.931 613.75L281.105 613.702L281.278 613.651L275.578 594.48ZM282.778 591.48L293.378 574.52L282.917 567.982L272.379 574.396L282.778 591.48ZM286.018 594.84L303.084 584.411L303.084 584.411L286.018 594.84ZM282.298 607.44L273.018 589.723L272.966 589.75L272.915 589.778L282.298 607.44ZM273.658 610.2L270.691 590.421L270.691 590.421L273.658 610.2ZM256.258 564.72L248.135 546.444L247.938 546.532L247.742 546.624L256.258 564.72ZM252.898 567.24L267.641 580.754L267.909 580.462L268.166 580.159L252.898 567.24ZM250.858 570.6L232.132 563.578L232.002 563.924L231.884 564.275L250.858 570.6ZM250.138 574.32L230.177 573.072L228.612 598.111L253.37 594.057L250.138 574.32ZM270.658 570.96L273.89 590.697L293.364 587.508L290.437 567.993L270.658 570.96ZM268.018 566.16L282.518 552.385L282.518 552.385L268.018 566.16ZM264.658 610.92V590.92C261.76 590.92 259.398 590.53 257.445 589.917L251.458 609L245.471 628.083C251.679 630.03 258.116 630.92 264.658 630.92V610.92ZM251.458 609L257.896 590.065C256.226 589.497 255 588.758 254.012 587.899L240.898 603L227.784 618.101C232.876 622.522 238.69 625.783 245.02 627.935L251.458 609ZM240.898 603L254.21 588.074C253.597 587.527 252.849 586.633 252.124 584.985L233.818 593.04L215.512 601.095C218.307 607.447 222.279 613.193 227.586 617.926L240.898 603ZM233.818 593.04L252.258 585.295C251.819 584.252 251.298 582.308 251.298 579H231.298H211.298C211.298 586.412 212.457 593.828 215.378 600.785L233.818 593.04ZM231.298 579H251.298C251.298 575.769 251.82 574.176 252.078 573.599L233.818 565.44L215.558 557.281C212.456 564.224 211.298 571.671 211.298 579H231.298ZM233.818 565.44L251.999 573.773C252.729 572.182 253.369 571.526 253.674 571.265L240.658 556.08L227.642 540.895C222.347 545.434 218.428 551.018 215.637 557.107L233.818 565.44ZM240.658 556.08L253.919 571.052C254.581 570.465 255.282 570.063 256.199 569.777L250.258 550.68L244.317 531.583C238.035 533.537 232.335 536.735 227.397 541.108L240.658 556.08ZM250.258 550.68L256.583 569.654C258.163 569.127 259.708 568.88 261.298 568.88V548.88V528.88C255.368 528.88 249.554 529.833 243.934 531.706L250.258 550.68ZM261.298 548.88V568.88C263.521 568.88 264.952 569.213 265.843 569.544L272.818 550.8L279.793 532.056C273.804 529.827 267.555 528.88 261.298 528.88V548.88ZM272.818 550.8L265.983 569.596C267.371 570.1 268.065 570.608 268.412 570.922L281.818 556.08L295.224 541.238C290.611 537.072 285.306 534.06 279.653 532.004L272.818 550.8ZM281.818 556.08L268.648 571.132C268.986 571.427 269.183 571.696 269.364 572.112L287.698 564.12L306.032 556.128C303.493 550.304 299.771 545.213 294.988 541.028L281.818 556.08ZM287.698 564.12L269.539 572.501C269.682 572.81 269.858 573.325 269.858 574.32H289.858H309.858C309.858 567.955 308.595 561.67 305.857 555.739L287.698 564.12ZM289.858 574.32H269.858C269.858 573.855 269.919 572.653 270.503 571.056C271.122 569.362 272.208 567.572 273.823 566.041L287.578 580.56L301.333 595.079C307.941 588.819 309.858 580.805 309.858 574.32H289.858ZM287.578 580.56L273.823 566.041C276.099 563.885 278.22 563.546 278.308 563.533L281.218 583.32L284.128 603.107C289.656 602.294 296.017 600.115 301.333 595.079L287.578 580.56ZM281.218 583.32L278.255 563.541L248.615 567.981L251.578 587.76L254.541 607.539L284.181 603.099L281.218 583.32ZM251.578 587.76L232.604 594.085C235.326 602.248 241.054 608.159 248.034 611.649L256.978 593.76L265.922 575.871C266.511 576.166 267.476 576.774 268.454 577.861C269.457 578.975 270.153 580.238 270.552 581.435L251.578 587.76ZM256.978 593.76L248.462 611.856C254.264 614.587 260.374 615.68 266.338 615.68V595.68V575.68C265.789 575.68 265.485 575.63 265.377 575.608C265.278 575.588 265.337 575.59 265.494 575.664L256.978 593.76ZM266.338 595.68V615.68C271.253 615.68 276.148 615.079 280.931 613.75L275.578 594.48L270.225 575.21C269.249 575.481 267.983 575.68 266.338 575.68V595.68ZM275.578 594.48L281.278 613.651C285.239 612.473 289.384 610.873 293.177 608.564L282.778 591.48L272.379 574.396C272.481 574.334 272.355 574.421 271.906 574.608C271.464 574.792 270.804 575.034 269.879 575.309L275.578 594.48ZM282.778 591.48L272.178 608.44C270.528 607.409 269.498 606.162 268.952 605.269L286.018 594.84L303.084 584.411C300.778 580.638 297.588 577.151 293.378 574.52L282.778 591.48ZM286.018 594.84L268.952 605.269C268.023 603.748 267.338 601.685 267.338 599.4H287.338H307.338C307.338 593.915 305.773 588.812 303.084 584.411L286.018 594.84ZM287.338 599.4H267.338C267.338 597.975 267.712 595.754 269.132 593.487C270.517 591.278 272.186 590.159 273.018 589.723L282.298 607.44L291.578 625.157C295.77 622.961 299.959 619.622 303.024 614.733C306.125 609.786 307.338 604.425 307.338 599.4H287.338ZM282.298 607.44L272.915 589.778C272.577 589.957 271.907 590.239 270.691 590.421L273.658 610.2L276.625 629.979C281.809 629.201 286.899 627.643 291.681 625.102L282.298 607.44ZM273.658 610.2L270.691 590.421C268.326 590.776 266.326 590.92 264.658 590.92V610.92V630.92C268.59 630.92 272.59 630.584 276.625 629.979L273.658 610.2ZM261.298 563.76V543.76C257.177 543.76 252.627 544.447 248.135 546.444L256.258 564.72L264.381 582.996C262.769 583.713 261.579 583.76 261.298 583.76V563.76ZM256.258 564.72L247.742 546.624C244.057 548.358 240.547 550.874 237.63 554.321L252.898 567.24L268.166 580.159C267.009 581.526 265.74 582.362 264.774 582.816L256.258 564.72ZM252.898 567.24L238.155 553.725C235.458 556.667 233.466 560.019 232.132 563.578L250.858 570.6L269.585 577.622C269.21 578.621 268.578 579.733 267.641 580.754L252.898 567.24ZM250.858 570.6L231.884 564.275C230.929 567.141 230.364 570.089 230.177 573.072L250.138 574.32L270.099 575.568C270.073 575.991 269.987 576.459 269.832 576.925L250.858 570.6ZM250.138 574.32L253.37 594.057L273.89 590.697L270.658 570.96L267.426 551.223L246.906 554.583L250.138 574.32ZM270.658 570.96L290.437 567.993C289.402 561.096 285.859 555.902 282.518 552.385L268.018 566.16L253.518 579.935C253.217 579.618 251.434 577.624 250.879 573.927L270.658 570.96ZM268.018 566.16L282.518 552.385C276.065 545.592 267.796 543.76 261.298 543.76V563.76V583.76C261.024 583.76 259.965 583.728 258.471 583.195C256.874 582.624 255.082 581.581 253.518 579.935L268.018 566.16ZM320.438 608.88L324.015 628.557L340.438 625.572V608.88H320.438ZM316.478 609.48L313.775 589.663L313.253 589.735L312.735 589.833L316.478 609.48ZM306.518 609.6L303.042 629.296L303.136 629.312L303.23 629.328L306.518 609.6ZM303.038 608.16L291.038 624.16L303.038 608.16ZM300.758 605.28L282.031 612.302L282.304 613.032L282.634 613.738L300.758 605.28ZM300.038 530.76L296.46 511.083L280.038 514.069V530.76H300.038ZM303.878 530.16L306.706 549.959L307.082 549.905L307.455 549.837L303.878 530.16ZM313.838 530.04L310.362 549.736L310.456 549.752L310.549 549.768L313.838 530.04ZM317.438 531.48L305.437 547.48L305.438 547.48L317.438 531.48ZM319.598 534.48L300.871 541.502L301.144 542.232L301.474 542.938L319.598 534.48ZM320.438 608.88L316.86 589.203C316.431 589.281 315.468 589.433 313.775 589.663L316.478 609.48L319.18 629.297C321.007 629.047 322.684 628.799 324.015 628.557L320.438 608.88ZM316.478 609.48L312.735 589.833C312.324 589.912 311.858 589.96 311.318 589.96V609.96V629.96C314.297 629.96 317.271 629.688 320.22 629.127L316.478 609.48ZM311.318 609.96V589.96C310.443 589.96 309.965 589.899 309.805 589.872L306.518 609.6L303.23 629.328C305.95 629.781 308.672 629.96 311.318 629.96V609.96ZM306.518 609.6L309.993 589.904C311.257 590.127 313.131 590.73 315.037 592.16L303.038 608.16L291.038 624.16C294.864 627.03 299.058 628.593 303.042 629.296L306.518 609.6ZM303.038 608.16L315.037 592.16C316.972 593.611 318.198 595.358 318.881 596.822L300.758 605.28L282.634 613.738C284.437 617.602 287.183 621.269 291.038 624.16L303.038 608.16ZM300.758 605.28L319.484 598.258C319.836 599.197 319.962 599.891 320.007 600.194C320.052 600.505 320.038 600.582 320.038 600.36H300.038H280.038C280.038 603.748 280.415 607.994 282.031 612.302L300.758 605.28ZM300.038 600.36H320.038V530.76H300.038H280.038V600.36H300.038ZM300.038 530.76L303.615 550.437C304.116 550.346 305.097 550.189 306.706 549.959L303.878 530.16L301.049 510.361C299.298 510.611 297.719 510.854 296.46 511.083L300.038 530.76ZM303.878 530.16L307.455 549.837C308.054 549.729 308.617 549.68 309.158 549.68V529.68V509.68C306.178 509.68 303.221 509.951 300.3 510.483L303.878 530.16ZM309.158 529.68V549.68C310.052 549.68 310.411 549.744 310.362 549.736L313.838 530.04L317.313 510.344C314.544 509.856 311.783 509.68 309.158 509.68V529.68ZM313.838 530.04L310.549 549.768C309.505 549.594 307.538 549.056 305.437 547.48L317.438 531.48L329.438 515.48C325.417 512.464 321.05 510.966 317.126 510.312L313.838 530.04ZM317.438 531.48L305.438 547.48C302.936 545.604 301.539 543.285 300.871 541.502L319.598 534.48L338.324 527.458C336.696 523.115 333.859 518.796 329.437 515.48L317.438 531.48ZM319.598 534.48L301.474 542.938C300.865 541.632 300.624 540.584 300.527 540.028C300.428 539.464 300.438 539.182 300.438 539.28H320.438H340.438C340.438 535.713 339.985 530.872 337.721 526.022L319.598 534.48ZM320.438 539.28H300.438V608.88H320.438H340.438V539.28H320.438ZM354.07 608.88L357.648 628.557L374.07 625.572V608.88H354.07ZM350.11 609.48L347.408 589.663L346.886 589.735L346.368 589.833L350.11 609.48ZM340.15 609.6L336.675 629.296L336.768 629.312L336.862 629.328L340.15 609.6ZM336.67 608.16L324.67 624.16L336.67 608.16ZM334.39 605.28L315.664 612.302L315.937 613.032L316.267 613.738L334.39 605.28ZM333.67 530.76L330.093 511.083L313.67 514.069V530.76H333.67ZM337.51 530.16L340.339 549.959L340.715 549.905L341.088 549.837L337.51 530.16ZM347.47 530.04L343.995 549.736L344.088 549.752L344.182 549.768L347.47 530.04ZM351.07 531.48L339.07 547.48L339.07 547.48L351.07 531.48ZM353.23 534.48L334.504 541.502L334.777 542.232L335.107 542.938L353.23 534.48ZM354.07 608.88L350.493 589.203C350.064 589.281 349.101 589.433 347.408 589.663L350.11 609.48L352.813 629.297C354.64 629.047 356.317 628.799 357.648 628.557L354.07 608.88ZM350.11 609.48L346.368 589.833C345.957 589.912 345.491 589.96 344.95 589.96V609.96V629.96C347.93 629.96 350.904 629.688 353.853 629.127L350.11 609.48ZM344.95 609.96V589.96C344.076 589.96 343.598 589.899 343.438 589.872L340.15 609.6L336.862 629.328C339.583 629.781 342.305 629.96 344.95 629.96V609.96ZM340.15 609.6L343.626 589.904C344.89 590.127 346.764 590.73 348.67 592.16L336.67 608.16L324.67 624.16C328.497 627.03 332.69 628.593 336.675 629.296L340.15 609.6ZM336.67 608.16L348.67 592.16C350.605 593.611 351.83 595.358 352.514 596.822L334.39 605.28L316.267 613.738C318.07 617.602 320.816 621.269 324.67 624.16L336.67 608.16ZM334.39 605.28L353.117 598.258C353.469 599.197 353.595 599.891 353.64 600.194C353.685 600.505 353.67 600.582 353.67 600.36H333.67H313.67C313.67 603.748 314.048 607.994 315.664 612.302L334.39 605.28ZM333.67 600.36H353.67V530.76H333.67H313.67V600.36H333.67ZM333.67 530.76L337.248 550.437C337.749 550.346 338.73 550.189 340.339 549.959L337.51 530.16L334.682 510.361C332.931 510.611 331.352 510.854 330.093 511.083L333.67 530.76ZM337.51 530.16L341.088 549.837C341.687 549.729 342.25 549.68 342.79 549.68V529.68V509.68C339.811 509.68 336.854 509.951 333.933 510.483L337.51 530.16ZM342.79 529.68V549.68C343.685 549.68 344.044 549.744 343.995 549.736L347.47 530.04L350.946 510.344C348.177 509.856 345.416 509.68 342.79 509.68V529.68ZM347.47 530.04L344.182 549.768C343.138 549.594 341.171 549.056 339.07 547.48L351.07 531.48L363.07 515.48C359.049 512.464 354.683 510.966 350.758 510.312L347.47 530.04ZM351.07 531.48L339.07 547.48C336.569 545.604 335.172 543.285 334.504 541.502L353.23 534.48L371.957 527.458C370.328 523.115 367.492 518.796 363.07 515.48L351.07 531.48ZM353.23 534.48L335.107 542.938C334.498 541.632 334.257 540.584 334.16 540.028C334.061 539.464 334.07 539.182 334.07 539.28H354.07H374.07C374.07 535.713 373.617 530.872 371.354 526.022L353.23 534.48ZM354.07 539.28H334.07V608.88H354.07H374.07V539.28H354.07ZM376.063 594.12L357.757 602.175L357.794 602.259L357.831 602.342L376.063 594.12ZM373.183 587.4L354.532 594.62L354.632 594.879L354.739 595.135L373.183 587.4ZM370.063 578.88L351.042 585.062L351.112 585.275L351.186 585.487L370.063 578.88ZM366.703 567.96L347.391 573.159L347.451 573.382L347.516 573.603L366.703 567.96ZM363.103 553.68L348.961 539.538L341.052 547.447L343.65 558.325L363.103 553.68ZM367.543 550.8L375.518 569.141L375.698 569.063L375.876 568.981L367.543 550.8ZM380.743 551.28L369.818 568.032L370.078 568.202L370.344 568.364L380.743 551.28ZM384.823 557.76L365.539 563.063L365.569 563.173L365.601 563.282L384.823 557.76ZM394.303 590.76L375.081 596.282L379.24 610.76H394.303V590.76ZM394.783 590.76V610.76H408.933L413.643 597.416L394.783 590.76ZM397.543 581.88L378.387 576.133L378.32 576.354L378.259 576.577L397.543 581.88ZM400.303 572.04L419.651 577.107L419.665 577.052L419.679 576.997L400.303 572.04ZM402.703 561.84L383.223 557.31L383.184 557.479L383.147 557.649L402.703 561.84ZM404.743 551.76L395.408 534.072L386.688 538.675L385.028 548.394L404.743 551.76ZM421.183 551.28L432.108 534.528L432.108 534.528L421.183 551.28ZM423.103 565.08L442.715 569.002L442.725 568.95L442.735 568.897L423.103 565.08ZM420.823 574.08L401.667 568.333L401.6 568.554L401.539 568.777L420.823 574.08ZM417.583 584.04L398.839 577.065L398.793 577.189L398.748 577.313L417.583 584.04ZM413.743 594L432.218 601.66L432.218 601.66L413.743 594ZM409.543 603.36L427.432 612.304L427.48 612.207L427.528 612.109L409.543 603.36ZM405.343 611.16L388.089 601.046L388.033 601.141L387.978 601.237L405.343 611.16ZM399.103 620.76L414.918 633.003L414.918 633.003L399.103 620.76ZM393.583 626.52L381.354 610.694L381.134 610.865L380.918 611.041L393.583 626.52ZM388.303 629.4L383.041 610.105L382.637 610.215L382.239 610.341L388.303 629.4ZM374.623 627.24L360.761 641.657L360.761 641.657L374.623 627.24ZM370.903 619.44L358.59 603.68L349.65 610.664L351.058 621.921L370.903 619.44ZM378.583 612.72L364.904 598.129L364.785 598.241L364.667 598.355L378.583 612.72ZM385.543 605.28L401.065 617.892L420.013 594.571L391.186 586.093L385.543 605.28ZM381.103 602.52L366.961 616.662L367.333 617.034L367.724 617.386L381.103 602.52ZM376.063 594.12L394.369 586.065C393.545 584.192 392.632 582.062 391.627 579.665L373.183 587.4L354.739 595.135C355.814 597.698 356.821 600.048 357.757 602.175L376.063 594.12ZM373.183 587.4L391.834 580.18C390.971 577.949 390.007 575.32 388.94 572.273L370.063 578.88L351.186 585.487C352.359 588.84 353.475 591.891 354.532 594.62L373.183 587.4ZM370.063 578.88L389.084 572.698C388.115 569.716 387.051 566.261 385.89 562.317L366.703 567.96L347.516 573.603C348.756 577.819 349.932 581.644 351.042 585.062L370.063 578.88ZM366.703 567.96L386.015 562.761C384.956 558.827 383.803 554.257 382.556 549.035L363.103 553.68L343.65 558.325C344.963 563.823 346.21 568.773 347.391 573.159L366.703 567.96ZM363.103 553.68L377.245 567.822C376.188 568.88 375.39 569.197 375.518 569.141L367.543 550.8L359.569 532.459C356.016 534.003 352.259 536.24 348.961 539.538L363.103 553.68ZM367.543 550.8L375.876 568.981C375.485 569.161 375.078 569.293 374.682 569.377C374.291 569.46 373.98 569.48 373.783 569.48V549.48V529.48C368.845 529.48 363.901 530.468 359.21 532.619L367.543 550.8ZM373.783 549.48V569.48C373.761 569.48 372.013 569.464 369.818 568.032L380.743 551.28L391.668 534.528C385.793 530.696 379.405 529.48 373.783 529.48V549.48ZM380.743 551.28L370.344 568.364C368.175 567.043 366.884 565.454 366.218 564.396C365.595 563.406 365.472 562.819 365.539 563.063L384.823 557.76L404.107 552.457C402.584 546.917 399.181 539.089 391.142 534.196L380.743 551.28ZM384.823 557.76L365.601 563.282L375.081 596.282L394.303 590.76L413.526 585.238L404.046 552.238L384.823 557.76ZM394.303 590.76V610.76H394.783V590.76V570.76H394.303V590.76ZM394.783 590.76L413.643 597.416C414.782 594.19 415.84 590.773 416.827 587.183L397.543 581.88L378.259 576.577C377.486 579.387 376.705 581.89 375.923 584.104L394.783 590.76ZM397.543 581.88L416.7 587.627C417.73 584.193 418.713 580.686 419.651 577.107L400.303 572.04L380.956 566.973C380.133 570.114 379.276 573.167 378.387 576.133L397.543 581.88ZM400.303 572.04L419.679 576.997C420.622 573.311 421.482 569.655 422.259 566.031L402.703 561.84L383.147 557.649C382.484 560.745 381.744 563.889 380.927 567.083L400.303 572.04ZM402.703 561.84L422.183 566.37C423.068 562.568 423.827 558.819 424.458 555.126L404.743 551.76L385.028 548.394C384.539 551.261 383.939 554.232 383.223 557.31L402.703 561.84ZM404.743 551.76L414.078 569.448C414.069 569.452 414.049 569.463 414.019 569.474C413.989 569.485 413.964 569.492 413.95 569.496C413.936 569.499 413.945 569.496 413.984 569.491C414.023 569.487 414.101 569.48 414.223 569.48V549.48V529.48C407.719 529.48 401.328 530.948 395.408 534.072L404.743 551.76ZM414.223 549.48V569.48C414.201 569.48 412.453 569.464 410.258 568.032L421.183 551.28L432.108 534.528C426.233 530.696 419.845 529.48 414.223 529.48V549.48ZM421.183 551.28L410.258 568.032C407.817 566.441 406.009 564.197 404.962 561.83C404.01 559.678 403.943 558.023 403.943 557.52H423.943H443.943C443.943 550.404 441.49 540.646 432.108 534.528L421.183 551.28ZM423.943 557.52H403.943C403.943 558.036 403.867 559.226 403.471 561.263L423.103 565.08L442.735 568.897C443.459 565.174 443.943 561.324 443.943 557.52H423.943ZM423.103 565.08L403.492 561.158C403.073 563.25 402.476 565.636 401.667 568.333L420.823 574.08L439.98 579.827C441.09 576.124 442.013 572.51 442.715 569.002L423.103 565.08ZM420.823 574.08L401.539 568.777C400.83 571.357 399.936 574.118 398.839 577.065L417.583 584.04L436.328 591.015C437.791 587.082 439.057 583.203 440.107 579.383L420.823 574.08ZM417.583 584.04L398.748 577.313C397.66 580.361 396.5 583.369 395.268 586.34L413.743 594L432.218 601.66C433.706 598.071 435.106 594.439 436.418 590.767L417.583 584.04ZM413.743 594L395.268 586.34C394.049 589.28 392.811 592.035 391.558 594.611L409.543 603.36L427.528 612.109C429.155 608.765 430.717 605.28 432.218 601.66L413.743 594ZM409.543 603.36L391.655 594.416C390.376 596.973 389.186 599.174 388.089 601.046L405.343 611.16L422.597 621.274C424.22 618.506 425.83 615.507 427.432 612.304L409.543 603.36ZM405.343 611.16L387.978 601.237C386.018 604.667 384.451 607.015 383.289 608.517L399.103 620.76L414.918 633.003C417.595 629.545 420.188 625.493 422.708 621.083L405.343 611.16ZM399.103 620.76L383.289 608.517C382.685 609.297 382.201 609.849 381.843 610.222C381.482 610.599 381.315 610.725 381.354 610.694L393.583 626.52L405.812 642.346C409.337 639.622 412.347 636.324 414.918 633.003L399.103 620.76ZM393.583 626.52L380.918 611.041C380.811 611.129 381.512 610.522 383.041 610.105L388.303 629.4L393.565 648.695C398.614 647.318 402.835 644.791 406.248 641.999L393.583 626.52ZM388.303 629.4L382.239 610.341C382.365 610.301 382.487 610.274 382.594 610.258C382.701 610.241 382.768 610.24 382.783 610.24V630.24V650.24C386.679 650.24 390.57 649.667 394.367 648.459L388.303 629.4ZM382.783 630.24V610.24C383.089 610.24 383.953 610.288 385.124 610.718C386.349 611.169 387.522 611.897 388.485 612.823L374.623 627.24L360.761 641.657C367.176 647.825 375.167 650.24 382.783 650.24V630.24ZM374.623 627.24L388.485 612.823C389.177 613.488 389.767 614.305 390.185 615.181C390.59 616.03 390.714 616.685 390.749 616.959L370.903 619.44L351.058 621.921C351.955 629.1 354.988 636.106 360.761 641.657L374.623 627.24ZM370.903 619.44L383.216 635.2C386.385 632.724 389.478 630.011 392.499 627.085L378.583 612.72L364.667 598.355C362.568 600.389 360.541 602.156 358.59 603.68L370.903 619.44ZM378.583 612.72L392.262 627.311C395.439 624.332 398.381 621.195 401.065 617.892L385.543 605.28L370.021 592.668C368.545 594.485 366.847 596.308 364.904 598.129L378.583 612.72ZM385.543 605.28L391.186 586.093C392.579 586.502 393.516 587.021 393.972 587.304C394.433 587.591 394.602 587.761 394.482 587.654L381.103 602.52L367.724 617.386C370.5 619.884 374.571 622.9 379.9 624.467L385.543 605.28ZM381.103 602.52L395.245 588.378C395.71 588.842 395.956 589.17 396.004 589.235C396.061 589.312 396.008 589.248 395.853 588.99C395.529 588.451 395.003 587.468 394.295 585.898L376.063 594.12L357.831 602.342C359.826 606.766 362.718 612.419 366.961 616.662L381.103 602.52Z" fill="black" mask="url(#path-14-outside-1_0_1)"/>
</svg>
